<svg xmlns="http://www.w3.org/2000/svg" xmlns:xlink="http://www.w3.org/1999/xlink" width="500" zoomAndPan="magnify" viewBox="0 0 375 374.999991" height="500" preserveAspectRatio="xMidYMid meet" version="1.0"><defs><g/><clipPath id="d5b723dcd2"><path d="M 107.261719 96 L 267.761719 96 L 267.761719 183 L 107.261719 183 Z M 107.261719 96 " clip-rule="nonzero"/></clipPath></defs><path fill="#2036b3" d="M 212.363281 151.972656 C 213.484375 150.050781 213.585938 147.585938 212.363281 145.496094 L 206.707031 135.746094 L 201.046875 145.496094 C 199.828125 147.554688 199.929688 150.050781 201.046875 151.972656 C 201.589844 152.917969 202.402344 153.761719 203.453125 154.335938 C 204.46875 154.910156 205.589844 155.210938 206.707031 155.179688 C 207.824219 155.179688 208.941406 154.910156 209.957031 154.335938 C 211.007812 153.761719 211.824219 152.953125 212.363281 151.972656 Z M 162.660156 126.9375 C 161.542969 128.863281 161.441406 131.324219 162.660156 133.417969 L 168.320312 143.167969 L 173.976562 133.417969 C 175.164062 131.359375 175.09375 128.863281 173.976562 126.9375 C 173.433594 125.992188 172.621094 125.148438 171.570312 124.578125 C 170.554688 124.003906 169.4375 123.699219 168.320312 123.734375 C 167.199219 123.734375 166.082031 124.003906 165.066406 124.578125 C 164.015625 125.148438 163.203125 125.960938 162.660156 126.9375 Z M 162.660156 126.9375 " fill-opacity="1" fill-rule="evenodd"/><g clip-path="url(#d5b723dcd2)"><path fill="#2f81ff" d="M 203.351562 141.617188 L 206.738281 135.777344 L 202.167969 127.882812 L 202.167969 127.847656 L 191.5625 109.597656 C 189.191406 105.511719 185.871094 102.105469 181.769531 99.742188 L 181.398438 99.542969 C 177.398438 97.316406 172.890625 96.203125 168.285156 96.203125 C 163.675781 96.203125 159.171875 97.316406 155.140625 99.542969 L 154.832031 99.710938 C 150.667969 102.105469 147.378906 105.511719 145.007812 109.597656 L 134.402344 127.847656 L 134.402344 127.882812 L 119.425781 153.726562 C 117.632812 156.832031 118.714844 160.78125 121.832031 162.566406 C 124.949219 164.355469 128.914062 163.277344 130.710938 160.171875 L 145.855469 134.058594 L 156.257812 116.109375 C 157.476562 113.980469 159.171875 112.195312 161.304688 110.980469 L 161.542969 110.84375 C 163.574219 109.730469 165.914062 109.226562 168.25 109.226562 C 170.621094 109.226562 172.925781 109.730469 174.992188 110.84375 L 175.195312 110.945312 C 177.363281 112.195312 179.058594 113.980469 180.277344 116.109375 L 190.679688 134.058594 L 200.914062 151.671875 C 199.964844 149.78125 199.929688 147.484375 201.082031 145.527344 Z M 171.671875 137.296875 L 173.941406 133.382812 C 175.09375 131.425781 175.0625 129.097656 174.113281 127.242188 L 184.34375 144.855469 L 194.746094 162.804688 C 195.964844 164.929688 197.660156 166.71875 199.828125 167.964844 L 200.03125 168.066406 C 202.097656 169.214844 204.402344 169.6875 206.773438 169.6875 C 209.144531 169.6875 211.449219 169.179688 213.484375 168.066406 L 213.71875 167.933594 C 215.855469 166.71875 217.546875 164.929688 218.769531 162.804688 L 229.167969 144.855469 L 244.316406 118.738281 C 246.109375 115.636719 250.074219 114.554688 253.191406 116.34375 C 256.308594 118.132812 257.394531 122.078125 255.597656 125.183594 L 240.621094 151.027344 L 240.621094 151.0625 L 230.050781 169.316406 C 227.679688 173.398438 224.359375 176.804688 220.226562 179.203125 L 219.921875 179.371094 C 215.886719 181.632812 211.382812 182.710938 206.773438 182.710938 C 202.167969 182.710938 197.660156 181.597656 193.660156 179.371094 L 193.289062 179.167969 C 189.191406 176.804688 185.871094 173.398438 183.496094 169.316406 L 172.925781 151.0625 L 172.925781 151.027344 L 168.351562 143.132812 Z M 254.683594 102.679688 C 254.683594 106.222656 257.5625 109.089844 261.121094 109.089844 C 264.675781 109.089844 267.558594 106.222656 267.558594 102.679688 C 267.558594 99.136719 264.675781 96.269531 261.121094 96.269531 C 257.5625 96.234375 254.683594 99.136719 254.683594 102.679688 Z M 120.34375 176.234375 C 120.34375 172.691406 117.460938 169.820312 113.90625 169.820312 C 110.347656 169.820312 107.46875 172.691406 107.46875 176.234375 C 107.46875 179.773438 110.347656 182.644531 113.90625 182.644531 C 117.460938 182.644531 120.34375 179.773438 120.34375 176.234375 Z M 120.34375 176.234375 " fill-opacity="1" fill-rule="evenodd"/></g><path fill="#fe4eee" d="M 168.285156 143.132812 L 162.625 133.382812 C 161.40625 131.324219 161.507812 128.828125 162.625 126.90625 L 144.261719 158.554688 L 135.894531 173.0625 C 134.097656 176.164062 135.148438 180.148438 138.265625 181.933594 C 141.382812 183.722656 145.378906 182.675781 147.175781 179.574219 L 155.511719 165.234375 Z M 206.738281 135.777344 L 212.398438 145.527344 C 213.617188 147.585938 213.515625 150.085938 212.398438 152.007812 L 230.761719 120.359375 L 239.164062 105.886719 C 240.960938 102.78125 239.910156 98.800781 236.792969 97.011719 C 233.675781 95.222656 229.679688 96.269531 227.882812 99.371094 L 219.546875 113.710938 Z M 206.738281 135.777344 " fill-opacity="1" fill-rule="evenodd"/><g fill="#ffffff" fill-opacity="1"><g transform="translate(47.906251, 239.427054)"><g><path d="M 27.03125 -33.59375 L 27.03125 -26.828125 L 17.65625 -26.828125 L 17.65625 0 L 10.375 0 L 10.375 -26.828125 L 1.0625 -26.828125 L 1.0625 -33.59375 Z M 27.03125 -33.59375 "/></g></g></g><g fill="#ffffff" fill-opacity="1"><g transform="translate(75.938198, 239.427054)"><g><path d="M 18.1875 -26.546875 C 21.132812 -26.546875 23.457031 -25.566406 25.15625 -23.609375 C 26.851562 -21.660156 27.703125 -19.039062 27.703125 -15.75 L 27.703125 0 L 20.6875 0 L 20.6875 -14.59375 C 20.6875 -16.507812 20.332031 -17.957031 19.625 -18.9375 C 18.925781 -19.914062 17.773438 -20.40625 16.171875 -20.40625 C 14.441406 -20.40625 13.039062 -19.800781 11.96875 -18.59375 C 10.90625 -17.394531 10.375 -15.738281 10.375 -13.625 L 10.375 0 L 3.359375 0 L 3.359375 -35.28125 L 10.375 -35.28125 L 10.375 -23.515625 C 11.363281 -24.441406 12.53125 -25.175781 13.875 -25.71875 C 15.21875 -26.269531 16.65625 -26.546875 18.1875 -26.546875 Z M 18.1875 -26.546875 "/></g></g></g><g fill="#ffffff" fill-opacity="1"><g transform="translate(106.70614, 239.427054)"><g><path d="M 24.53125 -25.96875 L 29.765625 -25.96875 L 29.765625 -0.046875 L 24.234375 -0.046875 L 23.65625 -2.359375 C 22.539062 -1.390625 21.269531 -0.632812 19.84375 -0.09375 C 18.425781 0.445312 16.898438 0.71875 15.265625 0.71875 C 12.671875 0.71875 10.347656 0.117188 8.296875 -1.078125 C 6.253906 -2.273438 4.640625 -3.90625 3.453125 -5.96875 C 2.273438 -8.039062 1.6875 -10.390625 1.6875 -13.015625 C 1.6875 -15.597656 2.273438 -17.921875 3.453125 -19.984375 C 4.640625 -22.054688 6.253906 -23.679688 8.296875 -24.859375 C 10.347656 -26.046875 12.671875 -26.640625 15.265625 -26.640625 C 16.929688 -26.640625 18.484375 -26.359375 19.921875 -25.796875 C 21.359375 -25.234375 22.640625 -24.457031 23.765625 -23.46875 Z M 15.84375 -5.90625 C 17.1875 -5.90625 18.394531 -6.207031 19.46875 -6.8125 C 20.539062 -7.425781 21.378906 -8.265625 21.984375 -9.328125 C 22.585938 -10.398438 22.890625 -11.628906 22.890625 -13.015625 C 22.890625 -14.359375 22.585938 -15.5625 21.984375 -16.625 C 21.378906 -17.695312 20.539062 -18.546875 19.46875 -19.171875 C 18.394531 -19.796875 17.1875 -20.109375 15.84375 -20.109375 C 14.46875 -20.109375 13.25 -19.796875 12.1875 -19.171875 C 11.132812 -18.546875 10.300781 -17.695312 9.6875 -16.625 C 9.082031 -15.5625 8.78125 -14.359375 8.78125 -13.015625 C 8.78125 -11.628906 9.082031 -10.410156 9.6875 -9.359375 C 10.300781 -8.304688 11.132812 -7.46875 12.1875 -6.84375 C 13.25 -6.21875 14.46875 -5.90625 15.84375 -5.90625 Z M 15.84375 -5.90625 "/></g></g></g><g fill="#ffffff" fill-opacity="1"><g transform="translate(139.826083, 239.427054)"><g><path d="M 18.140625 -26.546875 C 21.085938 -26.546875 23.414062 -25.5625 25.125 -23.59375 C 26.84375 -21.625 27.703125 -18.992188 27.703125 -15.703125 L 27.703125 0 L 20.6875 0 L 20.6875 -14.59375 C 20.6875 -18.46875 19.179688 -20.40625 16.171875 -20.40625 C 14.378906 -20.40625 12.960938 -19.796875 11.921875 -18.578125 C 10.890625 -17.359375 10.375 -15.707031 10.375 -13.625 L 10.375 0 L 3.359375 0 L 3.359375 -25.921875 L 8.15625 -25.921875 L 9.546875 -22.703125 C 10.503906 -23.890625 11.734375 -24.828125 13.234375 -25.515625 C 14.742188 -26.203125 16.378906 -26.546875 18.140625 -26.546875 Z M 18.140625 -26.546875 "/></g></g></g><g fill="#ffffff" fill-opacity="1"><g transform="translate(170.594026, 239.427054)"><g><path d="M 18.1875 -26.546875 C 21.132812 -26.546875 23.457031 -25.566406 25.15625 -23.609375 C 26.851562 -21.660156 27.703125 -19.039062 27.703125 -15.75 L 27.703125 0 L 20.6875 0 L 20.6875 -14.59375 C 20.6875 -16.507812 20.332031 -17.957031 19.625 -18.9375 C 18.925781 -19.914062 17.773438 -20.40625 16.171875 -20.40625 C 14.441406 -20.40625 13.039062 -19.800781 11.96875 -18.59375 C 10.90625 -17.394531 10.375 -15.738281 10.375 -13.625 L 10.375 0 L 3.359375 0 L 3.359375 -35.28125 L 10.375 -35.28125 L 10.375 -23.515625 C 11.363281 -24.441406 12.53125 -25.175781 13.875 -25.71875 C 15.21875 -26.269531 16.65625 -26.546875 18.1875 -26.546875 Z M 18.1875 -26.546875 "/></g></g></g><g fill="#ffffff" fill-opacity="1"><g transform="translate(201.361968, 239.427054)"><g/></g></g><g fill="#ffffff" fill-opacity="1"><g transform="translate(212.833949, 239.427054)"><g><path d="M 25.15625 -33.59375 L 32.25 -33.59375 L 32.25 0 L 26.203125 0 L 10.984375 -20.96875 L 10.984375 0 L 3.84375 0 L 3.84375 -33.59375 L 10.421875 -33.59375 L 25.15625 -13.109375 Z M 25.15625 -33.59375 "/></g></g></g><g fill="#ffffff" fill-opacity="1"><g transform="translate(248.929882, 239.427054)"><g><path d="M 24.53125 -25.96875 L 29.765625 -25.96875 L 29.765625 -0.046875 L 24.234375 -0.046875 L 23.65625 -2.359375 C 22.539062 -1.390625 21.269531 -0.632812 19.84375 -0.09375 C 18.425781 0.445312 16.898438 0.71875 15.265625 0.71875 C 12.671875 0.71875 10.347656 0.117188 8.296875 -1.078125 C 6.253906 -2.273438 4.640625 -3.90625 3.453125 -5.96875 C 2.273438 -8.039062 1.6875 -10.390625 1.6875 -13.015625 C 1.6875 -15.597656 2.273438 -17.921875 3.453125 -19.984375 C 4.640625 -22.054688 6.253906 -23.679688 8.296875 -24.859375 C 10.347656 -26.046875 12.671875 -26.640625 15.265625 -26.640625 C 16.929688 -26.640625 18.484375 -26.359375 19.921875 -25.796875 C 21.359375 -25.234375 22.640625 -24.457031 23.765625 -23.46875 Z M 15.84375 -5.90625 C 17.1875 -5.90625 18.394531 -6.207031 19.46875 -6.8125 C 20.539062 -7.425781 21.378906 -8.265625 21.984375 -9.328125 C 22.585938 -10.398438 22.890625 -11.628906 22.890625 -13.015625 C 22.890625 -14.359375 22.585938 -15.5625 21.984375 -16.625 C 21.378906 -17.695312 20.539062 -18.546875 19.46875 -19.171875 C 18.394531 -19.796875 17.1875 -20.109375 15.84375 -20.109375 C 14.46875 -20.109375 13.25 -19.796875 12.1875 -19.171875 C 11.132812 -18.546875 10.300781 -17.695312 9.6875 -16.625 C 9.082031 -15.5625 8.78125 -14.359375 8.78125 -13.015625 C 8.78125 -11.628906 9.082031 -10.410156 9.6875 -9.359375 C 10.300781 -8.304688 11.132812 -7.46875 12.1875 -6.84375 C 13.25 -6.21875 14.46875 -5.90625 15.84375 -5.90625 Z M 15.84375 -5.90625 "/></g></g></g><g fill="#ffffff" fill-opacity="1"><g transform="translate(282.049837, 239.427054)"><g><path d="M 32.828125 -26.546875 C 34.617188 -26.546875 36.203125 -26.101562 37.578125 -25.21875 C 38.953125 -24.34375 40.03125 -23.132812 40.8125 -21.59375 C 41.601562 -20.0625 42 -18.285156 42 -16.265625 L 42 0 L 34.984375 0 L 34.984375 -15.125 C 34.984375 -18.644531 33.675781 -20.40625 31.0625 -20.40625 C 29.519531 -20.40625 28.304688 -19.84375 27.421875 -18.71875 C 26.546875 -17.601562 26.109375 -16.035156 26.109375 -14.015625 L 26.109375 0 L 19.25 0 L 19.25 -15.125 C 19.25 -18.644531 17.984375 -20.40625 15.453125 -20.40625 C 13.859375 -20.40625 12.613281 -19.84375 11.71875 -18.71875 C 10.820312 -17.601562 10.375 -16.035156 10.375 -14.015625 L 10.375 0 L 3.359375 0 L 3.359375 -25.921875 L 8.25 -25.921875 L 9.546875 -22.703125 C 10.472656 -23.859375 11.617188 -24.785156 12.984375 -25.484375 C 14.347656 -26.191406 15.796875 -26.546875 17.328125 -26.546875 C 18.960938 -26.546875 20.4375 -26.175781 21.75 -25.4375 C 23.0625 -24.707031 24.082031 -23.6875 24.8125 -22.375 C 25.707031 -23.644531 26.859375 -24.65625 28.265625 -25.40625 C 29.679688 -26.164062 31.203125 -26.546875 32.828125 -26.546875 Z M 32.828125 -26.546875 "/></g></g></g><g fill="#ffffff" fill-opacity="1"><g transform="translate(69.290625, 274.826994)"><g><path d="M 20.109375 -12.59375 L 15.9375 0 L 13.453125 0 L 10.328125 -9.328125 L 7.15625 0 L 4.65625 0 L 0.484375 -12.59375 L 2.921875 -12.59375 L 6.046875 -3.03125 L 9.3125 -12.59375 L 11.46875 -12.59375 L 14.65625 -2.96875 L 17.875 -12.59375 Z M 20.109375 -12.59375 "/></g></g></g><g fill="#ffffff" fill-opacity="1"><g transform="translate(91.682557, 274.826994)"><g><path d="M 11.140625 -1.96875 L 11.140625 0 L 1.6875 0 L 1.6875 -12.59375 L 10.890625 -12.59375 L 10.890625 -10.640625 L 4.03125 -10.640625 L 4.03125 -7.359375 L 10.109375 -7.359375 L 10.109375 -5.4375 L 4.03125 -5.4375 L 4.03125 -1.96875 Z M 11.140625 -1.96875 "/></g></g></g><g fill="#ffffff" fill-opacity="1"><g transform="translate(105.542518, 274.826994)"><g><path d="M 10.625 -6.546875 C 11.3125 -6.316406 11.859375 -5.9375 12.265625 -5.40625 C 12.679688 -4.875 12.890625 -4.210938 12.890625 -3.421875 C 12.890625 -2.328125 12.46875 -1.484375 11.625 -0.890625 C 10.789062 -0.296875 9.566406 0 7.953125 0 L 1.6875 0 L 1.6875 -12.59375 L 7.59375 -12.59375 C 9.082031 -12.59375 10.226562 -12.300781 11.03125 -11.71875 C 11.832031 -11.144531 12.234375 -10.347656 12.234375 -9.328125 C 12.234375 -8.703125 12.085938 -8.148438 11.796875 -7.671875 C 11.515625 -7.191406 11.125 -6.816406 10.625 -6.546875 Z M 4.03125 -10.765625 L 4.03125 -7.296875 L 7.34375 -7.296875 C 8.15625 -7.296875 8.78125 -7.441406 9.21875 -7.734375 C 9.65625 -8.023438 9.875 -8.453125 9.875 -9.015625 C 9.875 -9.585938 9.65625 -10.019531 9.21875 -10.3125 C 8.78125 -10.613281 8.15625 -10.765625 7.34375 -10.765625 Z M 7.8125 -1.84375 C 9.625 -1.84375 10.53125 -2.445312 10.53125 -3.65625 C 10.53125 -4.863281 9.625 -5.46875 7.8125 -5.46875 L 4.03125 -5.46875 L 4.03125 -1.84375 Z M 7.8125 -1.84375 "/></g></g></g><g fill="#ffffff" fill-opacity="1"><g transform="translate(121.040472, 274.826994)"><g><path d="M 5.59375 0.1875 C 4.625 0.1875 3.6875 0.0507812 2.78125 -0.21875 C 1.875 -0.5 1.15625 -0.867188 0.625 -1.328125 L 1.4375 -3.15625 C 1.957031 -2.738281 2.59375 -2.398438 3.34375 -2.140625 C 4.09375 -1.890625 4.84375 -1.765625 5.59375 -1.765625 C 6.53125 -1.765625 7.226562 -1.910156 7.6875 -2.203125 C 8.15625 -2.503906 8.390625 -2.90625 8.390625 -3.40625 C 8.390625 -3.757812 8.257812 -4.050781 8 -4.28125 C 7.738281 -4.519531 7.410156 -4.707031 7.015625 -4.84375 C 6.617188 -4.976562 6.082031 -5.128906 5.40625 -5.296875 C 4.4375 -5.523438 3.65625 -5.75 3.0625 -5.96875 C 2.46875 -6.195312 1.957031 -6.554688 1.53125 -7.046875 C 1.113281 -7.535156 0.90625 -8.191406 0.90625 -9.015625 C 0.90625 -9.710938 1.09375 -10.34375 1.46875 -10.90625 C 1.84375 -11.476562 2.410156 -11.929688 3.171875 -12.265625 C 3.929688 -12.609375 4.863281 -12.78125 5.96875 -12.78125 C 6.738281 -12.78125 7.492188 -12.679688 8.234375 -12.484375 C 8.984375 -12.296875 9.628906 -12.019531 10.171875 -11.65625 L 9.4375 -9.84375 C 8.882812 -10.164062 8.304688 -10.410156 7.703125 -10.578125 C 7.097656 -10.742188 6.515625 -10.828125 5.953125 -10.828125 C 5.035156 -10.828125 4.347656 -10.671875 3.890625 -10.359375 C 3.441406 -10.054688 3.21875 -9.644531 3.21875 -9.125 C 3.21875 -8.769531 3.347656 -8.476562 3.609375 -8.25 C 3.867188 -8.019531 4.195312 -7.835938 4.59375 -7.703125 C 4.988281 -7.566406 5.523438 -7.414062 6.203125 -7.25 C 7.140625 -7.039062 7.90625 -6.816406 8.5 -6.578125 C 9.101562 -6.347656 9.617188 -5.988281 10.046875 -5.5 C 10.472656 -5.019531 10.6875 -4.375 10.6875 -3.5625 C 10.6875 -2.863281 10.5 -2.234375 10.125 -1.671875 C 9.75 -1.109375 9.175781 -0.65625 8.40625 -0.3125 C 7.632812 0.0195312 6.695312 0.1875 5.59375 0.1875 Z M 5.59375 0.1875 "/></g></g></g><g fill="#ffffff" fill-opacity="1"><g transform="translate(134.162438, 274.826994)"><g><path d="M 1.6875 -12.59375 L 4.03125 -12.59375 L 4.03125 0 L 1.6875 0 Z M 1.6875 -12.59375 "/></g></g></g><g fill="#ffffff" fill-opacity="1"><g transform="translate(141.704415, 274.826994)"><g><path d="M 4.25 -10.625 L 0.078125 -10.625 L 0.078125 -12.59375 L 10.765625 -12.59375 L 10.765625 -10.625 L 6.59375 -10.625 L 6.59375 0 L 4.25 0 Z M 4.25 -10.625 "/></g></g></g><g fill="#ffffff" fill-opacity="1"><g transform="translate(154.340374, 274.826994)"><g><path d="M 11.140625 -1.96875 L 11.140625 0 L 1.6875 0 L 1.6875 -12.59375 L 10.890625 -12.59375 L 10.890625 -10.640625 L 4.03125 -10.640625 L 4.03125 -7.359375 L 10.109375 -7.359375 L 10.109375 -5.4375 L 4.03125 -5.4375 L 4.03125 -1.96875 Z M 11.140625 -1.96875 "/></g></g></g><g fill="#ffffff" fill-opacity="1"><g transform="translate(168.200335, 274.826994)"><g/></g></g><g fill="#ffffff" fill-opacity="1"><g transform="translate(174.968313, 274.826994)"><g><path d="M 1.6875 -12.59375 L 7.203125 -12.59375 C 8.546875 -12.59375 9.738281 -12.332031 10.78125 -11.8125 C 11.820312 -11.289062 12.628906 -10.550781 13.203125 -9.59375 C 13.785156 -8.644531 14.078125 -7.546875 14.078125 -6.296875 C 14.078125 -5.046875 13.785156 -3.941406 13.203125 -2.984375 C 12.628906 -2.035156 11.820312 -1.300781 10.78125 -0.78125 C 9.738281 -0.257812 8.546875 0 7.203125 0 L 1.6875 0 Z M 7.09375 -1.984375 C 8.019531 -1.984375 8.832031 -2.160156 9.53125 -2.515625 C 10.226562 -2.867188 10.765625 -3.367188 11.140625 -4.015625 C 11.523438 -4.671875 11.71875 -5.429688 11.71875 -6.296875 C 11.71875 -7.160156 11.523438 -7.921875 11.140625 -8.578125 C 10.765625 -9.234375 10.226562 -9.738281 9.53125 -10.09375 C 8.832031 -10.445312 8.019531 -10.625 7.09375 -10.625 L 4.03125 -10.625 L 4.03125 -1.984375 Z M 7.09375 -1.984375 "/></g></g></g><g fill="#ffffff" fill-opacity="1"><g transform="translate(191.636266, 274.826994)"><g><path d="M 11.140625 -1.96875 L 11.140625 0 L 1.6875 0 L 1.6875 -12.59375 L 10.890625 -12.59375 L 10.890625 -10.640625 L 4.03125 -10.640625 L 4.03125 -7.359375 L 10.109375 -7.359375 L 10.109375 -5.4375 L 4.03125 -5.4375 L 4.03125 -1.96875 Z M 11.140625 -1.96875 "/></g></g></g><g fill="#ffffff" fill-opacity="1"><g transform="translate(205.496227, 274.826994)"><g><path d="M 13.21875 -12.59375 L 7.71875 0 L 5.421875 0 L -0.09375 -12.59375 L 2.453125 -12.59375 L 6.640625 -2.875 L 10.875 -12.59375 Z M 13.21875 -12.59375 "/></g></g></g><g fill="#ffffff" fill-opacity="1"><g transform="translate(220.418178, 274.826994)"><g><path d="M 11.140625 -1.96875 L 11.140625 0 L 1.6875 0 L 1.6875 -12.59375 L 10.890625 -12.59375 L 10.890625 -10.640625 L 4.03125 -10.640625 L 4.03125 -7.359375 L 10.109375 -7.359375 L 10.109375 -5.4375 L 4.03125 -5.4375 L 4.03125 -1.96875 Z M 11.140625 -1.96875 "/></g></g></g><g fill="#ffffff" fill-opacity="1"><g transform="translate(234.278139, 274.826994)"><g><path d="M 1.6875 -12.59375 L 4.03125 -12.59375 L 4.03125 -1.984375 L 10.625 -1.984375 L 10.625 0 L 1.6875 0 Z M 1.6875 -12.59375 "/></g></g></g><g fill="#ffffff" fill-opacity="1"><g transform="translate(246.860105, 274.826994)"><g><path d="M 7.578125 0.1875 C 6.296875 0.1875 5.140625 -0.09375 4.109375 -0.65625 C 3.078125 -1.21875 2.265625 -1.992188 1.671875 -2.984375 C 1.085938 -3.972656 0.796875 -5.078125 0.796875 -6.296875 C 0.796875 -7.523438 1.085938 -8.632812 1.671875 -9.625 C 2.265625 -10.613281 3.078125 -11.382812 4.109375 -11.9375 C 5.140625 -12.5 6.296875 -12.78125 7.578125 -12.78125 C 8.859375 -12.78125 10.015625 -12.5 11.046875 -11.9375 C 12.078125 -11.382812 12.882812 -10.613281 13.46875 -9.625 C 14.0625 -8.644531 14.359375 -7.535156 14.359375 -6.296875 C 14.359375 -5.066406 14.0625 -3.957031 13.46875 -2.96875 C 12.882812 -1.988281 12.078125 -1.21875 11.046875 -0.65625 C 10.015625 -0.09375 8.859375 0.1875 7.578125 0.1875 Z M 7.578125 -1.875 C 8.421875 -1.875 9.175781 -2.0625 9.84375 -2.4375 C 10.519531 -2.8125 11.046875 -3.335938 11.421875 -4.015625 C 11.804688 -4.703125 12 -5.460938 12 -6.296875 C 12 -7.140625 11.804688 -7.898438 11.421875 -8.578125 C 11.046875 -9.253906 10.519531 -9.78125 9.84375 -10.15625 C 9.175781 -10.539062 8.421875 -10.734375 7.578125 -10.734375 C 6.734375 -10.734375 5.972656 -10.539062 5.296875 -10.15625 C 4.628906 -9.78125 4.101562 -9.253906 3.71875 -8.578125 C 3.34375 -7.898438 3.15625 -7.140625 3.15625 -6.296875 C 3.15625 -5.460938 3.34375 -4.703125 3.71875 -4.015625 C 4.101562 -3.335938 4.628906 -2.8125 5.296875 -2.4375 C 5.972656 -2.0625 6.734375 -1.875 7.578125 -1.875 Z M 7.578125 -1.875 "/></g></g></g><g fill="#ffffff" fill-opacity="1"><g transform="translate(263.816047, 274.826994)"><g><path d="M 6.875 -12.59375 C 7.96875 -12.59375 8.914062 -12.410156 9.71875 -12.046875 C 10.53125 -11.691406 11.148438 -11.175781 11.578125 -10.5 C 12.015625 -9.832031 12.234375 -9.039062 12.234375 -8.125 C 12.234375 -7.207031 12.015625 -6.410156 11.578125 -5.734375 C 11.148438 -5.054688 10.53125 -4.535156 9.71875 -4.171875 C 8.914062 -3.816406 7.96875 -3.640625 6.875 -3.640625 L 4.03125 -3.640625 L 4.03125 0 L 1.6875 0 L 1.6875 -12.59375 Z M 6.765625 -5.609375 C 7.785156 -5.609375 8.554688 -5.820312 9.078125 -6.25 C 9.609375 -6.6875 9.875 -7.3125 9.875 -8.125 C 9.875 -8.925781 9.609375 -9.539062 9.078125 -9.96875 C 8.554688 -10.40625 7.785156 -10.625 6.765625 -10.625 L 4.03125 -10.625 L 4.03125 -5.609375 Z M 6.765625 -5.609375 "/></g></g></g><g fill="#ffffff" fill-opacity="1"><g transform="translate(278.684028, 274.826994)"><g><path d="M 11.140625 -1.96875 L 11.140625 0 L 1.6875 0 L 1.6875 -12.59375 L 10.890625 -12.59375 L 10.890625 -10.640625 L 4.03125 -10.640625 L 4.03125 -7.359375 L 10.109375 -7.359375 L 10.109375 -5.4375 L 4.03125 -5.4375 L 4.03125 -1.96875 Z M 11.140625 -1.96875 "/></g></g></g><g fill="#ffffff" fill-opacity="1"><g transform="translate(292.543966, 274.826994)"><g><path d="M 9.9375 0 L 7.359375 -3.6875 C 7.253906 -3.675781 7.09375 -3.671875 6.875 -3.671875 L 4.03125 -3.671875 L 4.03125 0 L 1.6875 0 L 1.6875 -12.59375 L 6.875 -12.59375 C 7.96875 -12.59375 8.914062 -12.410156 9.71875 -12.046875 C 10.53125 -11.691406 11.148438 -11.175781 11.578125 -10.5 C 12.015625 -9.832031 12.234375 -9.039062 12.234375 -8.125 C 12.234375 -7.175781 12.003906 -6.359375 11.546875 -5.671875 C 11.085938 -4.984375 10.425781 -4.472656 9.5625 -4.140625 L 12.453125 0 Z M 9.875 -8.125 C 9.875 -8.925781 9.609375 -9.539062 9.078125 -9.96875 C 8.554688 -10.40625 7.785156 -10.625 6.765625 -10.625 L 4.03125 -10.625 L 4.03125 -5.59375 L 6.765625 -5.59375 C 7.785156 -5.59375 8.554688 -5.8125 9.078125 -6.25 C 9.609375 -6.6875 9.875 -7.3125 9.875 -8.125 Z M 9.875 -8.125 "/></g></g></g></svg>