<svg xmlns="http://www.w3.org/2000/svg" xmlns:xlink="http://www.w3.org/1999/xlink" width="500" zoomAndPan="magnify" viewBox="0 0 375 374.999991" height="500" preserveAspectRatio="xMidYMid meet" version="1.0"><defs><g/><clipPath id="faf0809f6a"><path d="M 37.5 155 L 157.5 155 L 157.5 220 L 37.5 220 Z M 37.5 155 " clip-rule="nonzero"/></clipPath></defs><path fill="#2036b3" d="M 116.078125 196.660156 C 116.914062 195.222656 116.992188 193.386719 116.078125 191.828125 L 111.847656 184.554688 L 107.621094 191.828125 C 106.707031 193.363281 106.785156 195.222656 107.621094 196.660156 C 108.023438 197.363281 108.632812 197.992188 109.417969 198.417969 C 110.175781 198.847656 111.011719 199.074219 111.847656 199.050781 C 112.683594 199.050781 113.519531 198.847656 114.28125 198.417969 C 115.066406 197.992188 115.675781 197.386719 116.078125 196.660156 Z M 78.921875 177.988281 C 78.085938 179.421875 78.007812 181.257812 78.921875 182.820312 L 83.152344 190.089844 L 87.378906 182.820312 C 88.265625 181.285156 88.214844 179.421875 87.378906 177.988281 C 86.976562 177.285156 86.367188 176.65625 85.582031 176.226562 C 84.824219 175.800781 83.988281 175.574219 83.152344 175.597656 C 82.316406 175.597656 81.480469 175.800781 80.71875 176.226562 C 79.933594 176.65625 79.324219 177.257812 78.921875 177.988281 Z M 78.921875 177.988281 " fill-opacity="1" fill-rule="evenodd"/><g clip-path="url(#faf0809f6a)"><path fill="#2f81ff" d="M 109.339844 188.933594 L 111.875 184.582031 L 108.453125 178.691406 L 108.453125 178.667969 L 100.527344 165.054688 C 98.753906 162.011719 96.273438 159.46875 93.207031 157.707031 L 92.929688 157.558594 C 89.9375 155.894531 86.570312 155.066406 83.125 155.066406 C 79.679688 155.066406 76.3125 155.894531 73.296875 157.558594 L 73.070312 157.683594 C 69.953125 159.46875 67.496094 162.011719 65.722656 165.054688 L 57.796875 178.667969 L 57.796875 178.691406 L 46.601562 197.96875 C 45.257812 200.28125 46.066406 203.226562 48.398438 204.558594 C 50.730469 205.894531 53.691406 205.085938 55.035156 202.773438 L 66.355469 183.296875 L 74.132812 169.910156 C 75.046875 168.324219 76.3125 166.992188 77.90625 166.085938 L 78.085938 165.984375 C 79.605469 165.15625 81.351562 164.777344 83.101562 164.777344 C 84.875 164.777344 86.59375 165.15625 88.140625 165.984375 L 88.292969 166.0625 C 89.914062 166.992188 91.179688 168.324219 92.09375 169.910156 L 99.867188 183.296875 L 107.519531 196.433594 C 106.808594 195.023438 106.785156 193.3125 107.644531 191.851562 Z M 85.660156 185.714844 L 87.355469 182.792969 C 88.214844 181.335938 88.191406 179.597656 87.480469 178.214844 L 95.132812 191.347656 L 102.90625 204.734375 C 103.820312 206.320312 105.085938 207.65625 106.707031 208.585938 L 106.859375 208.660156 C 108.40625 209.515625 110.125 209.867188 111.898438 209.867188 C 113.671875 209.867188 115.394531 209.492188 116.914062 208.660156 L 117.09375 208.558594 C 118.6875 207.65625 119.953125 206.320312 120.867188 204.734375 L 128.644531 191.347656 L 139.964844 171.875 C 141.308594 169.558594 144.269531 168.753906 146.601562 170.085938 C 148.933594 171.421875 149.742188 174.363281 148.398438 176.679688 L 137.203125 195.953125 L 137.203125 195.980469 L 129.300781 209.59375 C 127.527344 212.636719 125.046875 215.179688 121.957031 216.964844 L 121.726562 217.089844 C 118.714844 218.777344 115.34375 219.582031 111.898438 219.582031 C 108.453125 219.582031 105.085938 218.75 102.097656 217.089844 L 101.820312 216.9375 C 98.753906 215.179688 96.273438 212.636719 94.5 209.59375 L 86.59375 195.980469 L 86.59375 195.953125 L 83.175781 190.066406 Z M 147.714844 159.898438 C 147.714844 162.539062 149.867188 164.675781 152.527344 164.675781 C 155.1875 164.675781 157.339844 162.539062 157.339844 159.898438 C 157.339844 157.253906 155.1875 155.117188 152.527344 155.117188 C 149.867188 155.089844 147.714844 157.253906 147.714844 159.898438 Z M 47.285156 214.75 C 47.285156 212.109375 45.132812 209.96875 42.472656 209.96875 C 39.8125 209.96875 37.660156 212.109375 37.660156 214.75 C 37.660156 217.390625 39.8125 219.53125 42.472656 219.53125 C 45.132812 219.53125 47.285156 217.390625 47.285156 214.75 Z M 47.285156 214.75 " fill-opacity="1" fill-rule="evenodd"/></g><path fill="#fe4eee" d="M 83.125 190.066406 L 78.894531 182.792969 C 77.984375 181.257812 78.058594 179.398438 78.894531 177.964844 L 65.167969 201.566406 L 58.910156 212.386719 C 57.566406 214.699219 58.351562 217.667969 60.683594 219.003906 C 63.015625 220.335938 66.003906 219.554688 67.34375 217.242188 L 73.574219 206.546875 Z M 111.875 184.582031 L 116.105469 191.851562 C 117.015625 193.386719 116.941406 195.25 116.105469 196.683594 L 129.832031 173.082031 L 136.113281 162.289062 C 137.457031 159.972656 136.671875 157.003906 134.34375 155.667969 C 132.011719 154.335938 129.023438 155.117188 127.679688 157.429688 L 121.449219 168.125 Z M 111.875 184.582031 " fill-opacity="1" fill-rule="evenodd"/><g fill="#10092b" fill-opacity="1"><g transform="translate(172.583796, 177.119988)"><g><path d="M 15.28125 -19.015625 L 15.28125 -15.1875 L 10 -15.1875 L 10 0 L 5.859375 0 L 5.859375 -15.1875 L 0.59375 -15.1875 L 0.59375 -19.015625 Z M 15.28125 -19.015625 "/></g></g></g><g fill="#10092b" fill-opacity="1"><g transform="translate(188.440775, 177.119988)"><g><path d="M 10.296875 -15.015625 C 11.960938 -15.015625 13.273438 -14.460938 14.234375 -13.359375 C 15.191406 -12.253906 15.671875 -10.769531 15.671875 -8.90625 L 15.671875 0 L 11.703125 0 L 11.703125 -8.25 C 11.703125 -9.34375 11.503906 -10.164062 11.109375 -10.71875 C 10.710938 -11.269531 10.0625 -11.546875 9.15625 -11.546875 C 8.175781 -11.546875 7.378906 -11.203125 6.765625 -10.515625 C 6.160156 -9.835938 5.859375 -8.90625 5.859375 -7.71875 L 5.859375 0 L 1.90625 0 L 1.90625 -19.953125 L 5.859375 -19.953125 L 5.859375 -13.3125 C 6.421875 -13.832031 7.082031 -14.242188 7.84375 -14.546875 C 8.601562 -14.859375 9.421875 -15.015625 10.296875 -15.015625 Z M 10.296875 -15.015625 "/></g></g></g><g fill="#10092b" fill-opacity="1"><g transform="translate(205.845441, 177.119988)"><g><path d="M 13.875 -14.6875 L 16.84375 -14.6875 L 16.84375 -0.03125 L 13.71875 -0.03125 L 13.390625 -1.328125 C 12.753906 -0.785156 12.03125 -0.359375 11.21875 -0.046875 C 10.414062 0.253906 9.554688 0.40625 8.640625 0.40625 C 7.171875 0.40625 5.851562 0.0664062 4.6875 -0.609375 C 3.53125 -1.285156 2.617188 -2.207031 1.953125 -3.375 C 1.285156 -4.539062 0.953125 -5.867188 0.953125 -7.359375 C 0.953125 -8.828125 1.285156 -10.144531 1.953125 -11.3125 C 2.617188 -12.476562 3.53125 -13.394531 4.6875 -14.0625 C 5.851562 -14.738281 7.171875 -15.078125 8.640625 -15.078125 C 9.578125 -15.078125 10.453125 -14.914062 11.265625 -14.59375 C 12.078125 -14.28125 12.800781 -13.84375 13.4375 -13.28125 Z M 8.96875 -3.34375 C 9.726562 -3.34375 10.410156 -3.515625 11.015625 -3.859375 C 11.617188 -4.203125 12.09375 -4.675781 12.4375 -5.28125 C 12.78125 -5.882812 12.953125 -6.578125 12.953125 -7.359375 C 12.953125 -8.117188 12.78125 -8.800781 12.4375 -9.40625 C 12.09375 -10.007812 11.617188 -10.488281 11.015625 -10.84375 C 10.410156 -11.195312 9.726562 -11.375 8.96875 -11.375 C 8.1875 -11.375 7.492188 -11.195312 6.890625 -10.84375 C 6.296875 -10.488281 5.828125 -10.007812 5.484375 -9.40625 C 5.140625 -8.800781 4.96875 -8.117188 4.96875 -7.359375 C 4.96875 -6.578125 5.140625 -5.890625 5.484375 -5.296875 C 5.828125 -4.703125 6.296875 -4.226562 6.890625 -3.875 C 7.492188 -3.519531 8.1875 -3.34375 8.96875 -3.34375 Z M 8.96875 -3.34375 "/></g></g></g><g fill="#10092b" fill-opacity="1"><g transform="translate(224.580562, 177.119988)"><g><path d="M 10.265625 -15.015625 C 11.929688 -15.015625 13.25 -14.457031 14.21875 -13.34375 C 15.1875 -12.226562 15.671875 -10.738281 15.671875 -8.875 L 15.671875 0 L 11.703125 0 L 11.703125 -8.25 C 11.703125 -10.445312 10.851562 -11.546875 9.15625 -11.546875 C 8.132812 -11.546875 7.328125 -11.203125 6.734375 -10.515625 C 6.148438 -9.828125 5.859375 -8.894531 5.859375 -7.71875 L 5.859375 0 L 1.90625 0 L 1.90625 -14.671875 L 4.609375 -14.671875 L 5.40625 -12.84375 C 5.945312 -13.507812 6.640625 -14.035156 7.484375 -14.421875 C 8.335938 -14.816406 9.265625 -15.015625 10.265625 -15.015625 Z M 10.265625 -15.015625 "/></g></g></g><g fill="#10092b" fill-opacity="1"><g transform="translate(241.985229, 177.119988)"><g><path d="M 10.296875 -15.015625 C 11.960938 -15.015625 13.273438 -14.460938 14.234375 -13.359375 C 15.191406 -12.253906 15.671875 -10.769531 15.671875 -8.90625 L 15.671875 0 L 11.703125 0 L 11.703125 -8.25 C 11.703125 -9.34375 11.503906 -10.164062 11.109375 -10.71875 C 10.710938 -11.269531 10.0625 -11.546875 9.15625 -11.546875 C 8.175781 -11.546875 7.378906 -11.203125 6.765625 -10.515625 C 6.160156 -9.835938 5.859375 -8.90625 5.859375 -7.71875 L 5.859375 0 L 1.90625 0 L 1.90625 -19.953125 L 5.859375 -19.953125 L 5.859375 -13.3125 C 6.421875 -13.832031 7.082031 -14.242188 7.84375 -14.546875 C 8.601562 -14.859375 9.421875 -15.015625 10.296875 -15.015625 Z M 10.296875 -15.015625 "/></g></g></g><g fill="#10092b" fill-opacity="1"><g transform="translate(259.389895, 177.119988)"><g/></g></g><g fill="#10092b" fill-opacity="1"><g transform="translate(265.879312, 177.119988)"><g><path d="M 14.234375 -19.015625 L 18.25 -19.015625 L 18.25 0 L 14.828125 0 L 6.21875 -11.875 L 6.21875 0 L 2.171875 0 L 2.171875 -19.015625 L 5.890625 -19.015625 L 14.234375 -7.40625 Z M 14.234375 -19.015625 "/></g></g></g><g fill="#10092b" fill-opacity="1"><g transform="translate(286.297882, 177.119988)"><g><path d="M 13.875 -14.6875 L 16.84375 -14.6875 L 16.84375 -0.03125 L 13.71875 -0.03125 L 13.390625 -1.328125 C 12.753906 -0.785156 12.03125 -0.359375 11.21875 -0.046875 C 10.414062 0.253906 9.554688 0.40625 8.640625 0.40625 C 7.171875 0.40625 5.851562 0.0664062 4.6875 -0.609375 C 3.53125 -1.285156 2.617188 -2.207031 1.953125 -3.375 C 1.285156 -4.539062 0.953125 -5.867188 0.953125 -7.359375 C 0.953125 -8.828125 1.285156 -10.144531 1.953125 -11.3125 C 2.617188 -12.476562 3.53125 -13.394531 4.6875 -14.0625 C 5.851562 -14.738281 7.171875 -15.078125 8.640625 -15.078125 C 9.578125 -15.078125 10.453125 -14.914062 11.265625 -14.59375 C 12.078125 -14.28125 12.800781 -13.84375 13.4375 -13.28125 Z M 8.96875 -3.34375 C 9.726562 -3.34375 10.410156 -3.515625 11.015625 -3.859375 C 11.617188 -4.203125 12.09375 -4.675781 12.4375 -5.28125 C 12.78125 -5.882812 12.953125 -6.578125 12.953125 -7.359375 C 12.953125 -8.117188 12.78125 -8.800781 12.4375 -9.40625 C 12.09375 -10.007812 11.617188 -10.488281 11.015625 -10.84375 C 10.410156 -11.195312 9.726562 -11.375 8.96875 -11.375 C 8.1875 -11.375 7.492188 -11.195312 6.890625 -10.84375 C 6.296875 -10.488281 5.828125 -10.007812 5.484375 -9.40625 C 5.140625 -8.800781 4.96875 -8.117188 4.96875 -7.359375 C 4.96875 -6.578125 5.140625 -5.890625 5.484375 -5.296875 C 5.828125 -4.703125 6.296875 -4.226562 6.890625 -3.875 C 7.492188 -3.519531 8.1875 -3.34375 8.96875 -3.34375 Z M 8.96875 -3.34375 "/></g></g></g><g fill="#10092b" fill-opacity="1"><g transform="translate(305.033004, 177.119988)"><g><path d="M 18.578125 -15.015625 C 19.585938 -15.015625 20.484375 -14.765625 21.265625 -14.265625 C 22.046875 -13.773438 22.65625 -13.09375 23.09375 -12.21875 C 23.539062 -11.351562 23.765625 -10.347656 23.765625 -9.203125 L 23.765625 0 L 19.796875 0 L 19.796875 -8.546875 C 19.796875 -10.546875 19.050781 -11.546875 17.5625 -11.546875 C 16.695312 -11.546875 16.015625 -11.226562 15.515625 -10.59375 C 15.015625 -9.957031 14.765625 -9.066406 14.765625 -7.921875 L 14.765625 0 L 10.890625 0 L 10.890625 -8.546875 C 10.890625 -10.546875 10.175781 -11.546875 8.75 -11.546875 C 7.84375 -11.546875 7.132812 -11.226562 6.625 -10.59375 C 6.113281 -9.957031 5.859375 -9.066406 5.859375 -7.921875 L 5.859375 0 L 1.90625 0 L 1.90625 -14.671875 L 4.671875 -14.671875 L 5.40625 -12.84375 C 5.925781 -13.5 6.570312 -14.023438 7.34375 -14.421875 C 8.113281 -14.816406 8.929688 -15.015625 9.796875 -15.015625 C 10.722656 -15.015625 11.554688 -14.804688 12.296875 -14.390625 C 13.046875 -13.972656 13.628906 -13.394531 14.046875 -12.65625 C 14.546875 -13.375 15.191406 -13.945312 15.984375 -14.375 C 16.785156 -14.800781 17.648438 -15.015625 18.578125 -15.015625 Z M 18.578125 -15.015625 "/></g></g></g><g fill="#10092b" fill-opacity="1"><g transform="translate(172.583796, 214.240356)"><g><path d="M 13.0625 -8.1875 L 10.34375 0 L 8.734375 0 L 6.703125 -6.046875 L 4.65625 0 L 3.03125 0 L 0.3125 -8.1875 L 1.890625 -8.1875 L 3.921875 -1.96875 L 6.046875 -8.1875 L 7.4375 -8.1875 L 9.515625 -1.921875 L 11.609375 -8.1875 Z M 13.0625 -8.1875 "/></g></g></g><g fill="#10092b" fill-opacity="1"><g transform="translate(187.118261, 214.240356)"><g><path d="M 7.234375 -1.28125 L 7.234375 0 L 1.09375 0 L 1.09375 -8.1875 L 7.078125 -8.1875 L 7.078125 -6.90625 L 2.625 -6.90625 L 2.625 -4.78125 L 6.5625 -4.78125 L 6.5625 -3.53125 L 2.625 -3.53125 L 2.625 -1.28125 Z M 7.234375 -1.28125 "/></g></g></g><g fill="#10092b" fill-opacity="1"><g transform="translate(196.114736, 214.240356)"><g><path d="M 6.890625 -4.25 C 7.347656 -4.101562 7.707031 -3.851562 7.96875 -3.5 C 8.238281 -3.15625 8.375 -2.726562 8.375 -2.21875 C 8.375 -1.507812 8.097656 -0.960938 7.546875 -0.578125 C 7.003906 -0.191406 6.210938 0 5.171875 0 L 1.09375 0 L 1.09375 -8.1875 L 4.9375 -8.1875 C 5.894531 -8.1875 6.632812 -7.992188 7.15625 -7.609375 C 7.6875 -7.234375 7.953125 -6.710938 7.953125 -6.046875 C 7.953125 -5.648438 7.859375 -5.296875 7.671875 -4.984375 C 7.484375 -4.671875 7.222656 -4.425781 6.890625 -4.25 Z M 2.625 -6.984375 L 2.625 -4.734375 L 4.765625 -4.734375 C 5.296875 -4.734375 5.703125 -4.828125 5.984375 -5.015625 C 6.273438 -5.210938 6.421875 -5.492188 6.421875 -5.859375 C 6.421875 -6.234375 6.273438 -6.515625 5.984375 -6.703125 C 5.703125 -6.890625 5.296875 -6.984375 4.765625 -6.984375 Z M 5.078125 -1.1875 C 6.253906 -1.1875 6.84375 -1.582031 6.84375 -2.375 C 6.84375 -3.15625 6.253906 -3.546875 5.078125 -3.546875 L 2.625 -3.546875 L 2.625 -1.1875 Z M 5.078125 -1.1875 "/></g></g></g><g fill="#10092b" fill-opacity="1"><g transform="translate(206.174412, 214.240356)"><g><path d="M 3.640625 0.109375 C 3.003906 0.109375 2.390625 0.0195312 1.796875 -0.15625 C 1.210938 -0.332031 0.75 -0.566406 0.40625 -0.859375 L 0.9375 -2.046875 C 1.269531 -1.773438 1.679688 -1.554688 2.171875 -1.390625 C 2.660156 -1.222656 3.148438 -1.140625 3.640625 -1.140625 C 4.242188 -1.140625 4.695312 -1.238281 5 -1.4375 C 5.300781 -1.632812 5.453125 -1.890625 5.453125 -2.203125 C 5.453125 -2.441406 5.363281 -2.632812 5.1875 -2.78125 C 5.019531 -2.9375 4.804688 -3.054688 4.546875 -3.140625 C 4.296875 -3.222656 3.945312 -3.320312 3.5 -3.4375 C 2.882812 -3.582031 2.382812 -3.726562 2 -3.875 C 1.613281 -4.03125 1.28125 -4.265625 1 -4.578125 C 0.71875 -4.890625 0.578125 -5.316406 0.578125 -5.859375 C 0.578125 -6.304688 0.703125 -6.710938 0.953125 -7.078125 C 1.203125 -7.453125 1.570312 -7.75 2.0625 -7.96875 C 2.5625 -8.1875 3.164062 -8.296875 3.875 -8.296875 C 4.375 -8.296875 4.863281 -8.234375 5.34375 -8.109375 C 5.832031 -7.984375 6.253906 -7.804688 6.609375 -7.578125 L 6.125 -6.390625 C 5.769531 -6.597656 5.394531 -6.753906 5 -6.859375 C 4.613281 -6.972656 4.238281 -7.03125 3.875 -7.03125 C 3.269531 -7.03125 2.820312 -6.925781 2.53125 -6.71875 C 2.238281 -6.519531 2.09375 -6.253906 2.09375 -5.921875 C 2.09375 -5.691406 2.175781 -5.5 2.34375 -5.34375 C 2.507812 -5.195312 2.71875 -5.082031 2.96875 -5 C 3.226562 -4.914062 3.582031 -4.816406 4.03125 -4.703125 C 4.632812 -4.566406 5.128906 -4.421875 5.515625 -4.265625 C 5.910156 -4.117188 6.242188 -3.890625 6.515625 -3.578125 C 6.796875 -3.265625 6.9375 -2.84375 6.9375 -2.3125 C 6.9375 -1.863281 6.8125 -1.453125 6.5625 -1.078125 C 6.320312 -0.710938 5.953125 -0.421875 5.453125 -0.203125 C 4.953125 0.00390625 4.347656 0.109375 3.640625 0.109375 Z M 3.640625 0.109375 "/></g></g></g><g fill="#10092b" fill-opacity="1"><g transform="translate(214.69186, 214.240356)"><g><path d="M 1.09375 -8.1875 L 2.625 -8.1875 L 2.625 0 L 1.09375 0 Z M 1.09375 -8.1875 "/></g></g></g><g fill="#10092b" fill-opacity="1"><g transform="translate(219.587414, 214.240356)"><g><path d="M 2.765625 -6.890625 L 0.046875 -6.890625 L 0.046875 -8.1875 L 6.984375 -8.1875 L 6.984375 -6.890625 L 4.28125 -6.890625 L 4.28125 0 L 2.765625 0 Z M 2.765625 -6.890625 "/></g></g></g><g fill="#10092b" fill-opacity="1"><g transform="translate(227.789405, 214.240356)"><g><path d="M 7.234375 -1.28125 L 7.234375 0 L 1.09375 0 L 1.09375 -8.1875 L 7.078125 -8.1875 L 7.078125 -6.90625 L 2.625 -6.90625 L 2.625 -4.78125 L 6.5625 -4.78125 L 6.5625 -3.53125 L 2.625 -3.53125 L 2.625 -1.28125 Z M 7.234375 -1.28125 "/></g></g></g><g fill="#10092b" fill-opacity="1"><g transform="translate(236.78588, 214.240356)"><g/></g></g><g fill="#10092b" fill-opacity="1"><g transform="translate(241.179037, 214.240356)"><g><path d="M 1.09375 -8.1875 L 4.671875 -8.1875 C 5.546875 -8.1875 6.320312 -8.015625 7 -7.671875 C 7.675781 -7.335938 8.203125 -6.859375 8.578125 -6.234375 C 8.953125 -5.617188 9.140625 -4.90625 9.140625 -4.09375 C 9.140625 -3.28125 8.953125 -2.5625 8.578125 -1.9375 C 8.203125 -1.320312 7.675781 -0.84375 7 -0.5 C 6.320312 -0.164062 5.546875 0 4.671875 0 L 1.09375 0 Z M 4.609375 -1.28125 C 5.203125 -1.28125 5.726562 -1.394531 6.1875 -1.625 C 6.644531 -1.851562 6.992188 -2.179688 7.234375 -2.609375 C 7.484375 -3.035156 7.609375 -3.53125 7.609375 -4.09375 C 7.609375 -4.65625 7.484375 -5.144531 7.234375 -5.5625 C 6.992188 -5.988281 6.644531 -6.316406 6.1875 -6.546875 C 5.726562 -6.773438 5.203125 -6.890625 4.609375 -6.890625 L 2.625 -6.890625 L 2.625 -1.28125 Z M 4.609375 -1.28125 "/></g></g></g><g fill="#10092b" fill-opacity="1"><g transform="translate(251.998132, 214.240356)"><g><path d="M 7.234375 -1.28125 L 7.234375 0 L 1.09375 0 L 1.09375 -8.1875 L 7.078125 -8.1875 L 7.078125 -6.90625 L 2.625 -6.90625 L 2.625 -4.78125 L 6.5625 -4.78125 L 6.5625 -3.53125 L 2.625 -3.53125 L 2.625 -1.28125 Z M 7.234375 -1.28125 "/></g></g></g><g fill="#10092b" fill-opacity="1"><g transform="translate(260.994607, 214.240356)"><g><path d="M 8.578125 -8.1875 L 5.015625 0 L 3.515625 0 L -0.0625 -8.1875 L 1.59375 -8.1875 L 4.3125 -1.875 L 7.0625 -8.1875 Z M 8.578125 -8.1875 "/></g></g></g><g fill="#10092b" fill-opacity="1"><g transform="translate(270.680405, 214.240356)"><g><path d="M 7.234375 -1.28125 L 7.234375 0 L 1.09375 0 L 1.09375 -8.1875 L 7.078125 -8.1875 L 7.078125 -6.90625 L 2.625 -6.90625 L 2.625 -4.78125 L 6.5625 -4.78125 L 6.5625 -3.53125 L 2.625 -3.53125 L 2.625 -1.28125 Z M 7.234375 -1.28125 "/></g></g></g><g fill="#10092b" fill-opacity="1"><g transform="translate(279.67688, 214.240356)"><g><path d="M 1.09375 -8.1875 L 2.625 -8.1875 L 2.625 -1.28125 L 6.890625 -1.28125 L 6.890625 0 L 1.09375 0 Z M 1.09375 -8.1875 "/></g></g></g><g fill="#10092b" fill-opacity="1"><g transform="translate(287.843818, 214.240356)"><g><path d="M 4.921875 0.109375 C 4.085938 0.109375 3.332031 -0.0664062 2.65625 -0.421875 C 1.988281 -0.785156 1.460938 -1.289062 1.078125 -1.9375 C 0.703125 -2.582031 0.515625 -3.300781 0.515625 -4.09375 C 0.515625 -4.882812 0.703125 -5.601562 1.078125 -6.25 C 1.460938 -6.894531 1.988281 -7.394531 2.65625 -7.75 C 3.332031 -8.113281 4.085938 -8.296875 4.921875 -8.296875 C 5.753906 -8.296875 6.503906 -8.113281 7.171875 -7.75 C 7.847656 -7.394531 8.375 -6.894531 8.75 -6.25 C 9.132812 -5.613281 9.328125 -4.894531 9.328125 -4.09375 C 9.328125 -3.289062 9.132812 -2.566406 8.75 -1.921875 C 8.375 -1.285156 7.847656 -0.785156 7.171875 -0.421875 C 6.503906 -0.0664062 5.753906 0.109375 4.921875 0.109375 Z M 4.921875 -1.21875 C 5.460938 -1.21875 5.953125 -1.335938 6.390625 -1.578125 C 6.828125 -1.828125 7.171875 -2.171875 7.421875 -2.609375 C 7.671875 -3.046875 7.796875 -3.539062 7.796875 -4.09375 C 7.796875 -4.632812 7.671875 -5.125 7.421875 -5.5625 C 7.171875 -6.007812 6.828125 -6.351562 6.390625 -6.59375 C 5.953125 -6.84375 5.460938 -6.96875 4.921875 -6.96875 C 4.378906 -6.96875 3.890625 -6.84375 3.453125 -6.59375 C 3.015625 -6.351562 2.671875 -6.007812 2.421875 -5.5625 C 2.171875 -5.125 2.046875 -4.632812 2.046875 -4.09375 C 2.046875 -3.539062 2.171875 -3.046875 2.421875 -2.609375 C 2.671875 -2.171875 3.015625 -1.828125 3.453125 -1.578125 C 3.890625 -1.335938 4.378906 -1.21875 4.921875 -1.21875 Z M 4.921875 -1.21875 "/></g></g></g><g fill="#10092b" fill-opacity="1"><g transform="translate(298.849852, 214.240356)"><g><path d="M 4.46875 -8.1875 C 5.175781 -8.1875 5.789062 -8.066406 6.3125 -7.828125 C 6.84375 -7.597656 7.25 -7.265625 7.53125 -6.828125 C 7.8125 -6.390625 7.953125 -5.867188 7.953125 -5.265625 C 7.953125 -4.679688 7.8125 -4.164062 7.53125 -3.71875 C 7.25 -3.28125 6.84375 -2.941406 6.3125 -2.703125 C 5.789062 -2.472656 5.175781 -2.359375 4.46875 -2.359375 L 2.625 -2.359375 L 2.625 0 L 1.09375 0 L 1.09375 -8.1875 Z M 4.390625 -3.640625 C 5.054688 -3.640625 5.5625 -3.78125 5.90625 -4.0625 C 6.25 -4.34375 6.421875 -4.742188 6.421875 -5.265625 C 6.421875 -5.785156 6.25 -6.1875 5.90625 -6.46875 C 5.5625 -6.75 5.054688 -6.890625 4.390625 -6.890625 L 2.625 -6.890625 L 2.625 -3.640625 Z M 4.390625 -3.640625 "/></g></g></g><g fill="#10092b" fill-opacity="1"><g transform="translate(308.500597, 214.240356)"><g><path d="M 7.234375 -1.28125 L 7.234375 0 L 1.09375 0 L 1.09375 -8.1875 L 7.078125 -8.1875 L 7.078125 -6.90625 L 2.625 -6.90625 L 2.625 -4.78125 L 6.5625 -4.78125 L 6.5625 -3.53125 L 2.625 -3.53125 L 2.625 -1.28125 Z M 7.234375 -1.28125 "/></g></g></g><g fill="#10092b" fill-opacity="1"><g transform="translate(317.497071, 214.240356)"><g><path d="M 6.453125 0 L 4.78125 -2.390625 C 4.707031 -2.390625 4.601562 -2.390625 4.46875 -2.390625 L 2.625 -2.390625 L 2.625 0 L 1.09375 0 L 1.09375 -8.1875 L 4.46875 -8.1875 C 5.175781 -8.1875 5.789062 -8.066406 6.3125 -7.828125 C 6.84375 -7.597656 7.25 -7.265625 7.53125 -6.828125 C 7.8125 -6.390625 7.953125 -5.867188 7.953125 -5.265625 C 7.953125 -4.648438 7.800781 -4.117188 7.5 -3.671875 C 7.195312 -3.234375 6.765625 -2.90625 6.203125 -2.6875 L 8.09375 0 Z M 6.421875 -5.265625 C 6.421875 -5.785156 6.25 -6.1875 5.90625 -6.46875 C 5.5625 -6.75 5.054688 -6.890625 4.390625 -6.890625 L 2.625 -6.890625 L 2.625 -3.640625 L 4.390625 -3.640625 C 5.054688 -3.640625 5.5625 -3.78125 5.90625 -4.0625 C 6.25 -4.34375 6.421875 -4.742188 6.421875 -5.265625 Z M 6.421875 -5.265625 "/></g></g></g></svg>