<svg xmlns="http://www.w3.org/2000/svg" xmlns:xlink="http://www.w3.org/1999/xlink" width="500" zoomAndPan="magnify" viewBox="0 0 375 374.999991" height="500" preserveAspectRatio="xMidYMid meet" version="1.0"><path fill="#2036b3" d="M 244.582031 216.179688 C 247.144531 211.761719 247.375 206.105469 244.582031 201.300781 L 231.625 178.910156 L 218.671875 201.300781 C 215.878906 206.027344 216.109375 211.761719 218.671875 216.179688 C 219.910156 218.351562 221.773438 220.285156 224.179688 221.605469 C 226.507812 222.921875 229.066406 223.617188 231.625 223.542969 C 234.1875 223.542969 236.746094 222.921875 239.074219 221.605469 C 241.480469 220.285156 243.339844 218.425781 244.582031 216.179688 Z M 130.769531 158.683594 C 128.210938 163.101562 127.976562 168.757812 130.769531 173.5625 L 143.726562 195.957031 L 156.683594 173.5625 C 159.398438 168.835938 159.242188 163.101562 156.683594 158.683594 C 155.441406 156.515625 153.578125 154.578125 151.171875 153.261719 C 148.847656 151.941406 146.285156 151.246094 143.726562 151.324219 C 141.164062 151.324219 138.605469 151.941406 136.277344 153.261719 C 133.871094 154.578125 132.011719 156.4375 130.769531 158.683594 Z M 130.769531 158.683594 " fill-opacity="1" fill-rule="evenodd"/><path fill="#2f81ff" d="M 223.945312 192.390625 L 231.703125 178.984375 L 221.230469 160.855469 L 221.230469 160.777344 L 196.945312 118.855469 C 191.515625 109.480469 183.914062 101.652344 174.527344 96.230469 L 173.671875 95.765625 C 164.519531 90.648438 154.199219 88.09375 143.648438 88.09375 C 133.097656 88.09375 122.777344 90.648438 113.546875 95.765625 L 112.847656 96.152344 C 103.304688 101.652344 95.78125 109.480469 90.347656 118.855469 L 66.066406 160.777344 L 66.066406 160.855469 L 31.773438 220.210938 C 27.664062 227.339844 30.144531 236.40625 37.28125 240.511719 C 44.421875 244.617188 53.496094 242.136719 57.609375 235.007812 L 92.289062 175.035156 L 116.105469 133.8125 C 118.898438 128.929688 122.777344 124.820312 127.667969 122.03125 L 128.210938 121.722656 C 132.863281 119.164062 138.21875 118.003906 143.570312 118.003906 C 149 118.003906 154.277344 119.164062 159.007812 121.722656 L 159.476562 121.957031 C 164.441406 124.820312 168.320312 128.929688 171.113281 133.8125 L 194.929688 175.035156 L 218.359375 215.484375 C 216.1875 211.144531 216.109375 205.875 218.746094 201.378906 Z M 151.40625 182.472656 L 156.605469 173.484375 C 159.242188 168.988281 159.164062 163.644531 156.992188 159.382812 L 180.421875 199.832031 L 204.238281 241.054688 C 207.03125 245.933594 210.910156 250.042969 215.878906 252.910156 L 216.34375 253.140625 C 221.074219 255.777344 226.351562 256.859375 231.78125 256.859375 C 237.210938 256.859375 242.488281 255.699219 247.144531 253.140625 L 247.6875 252.832031 C 252.574219 250.042969 256.453125 245.933594 259.246094 241.054688 L 283.0625 199.832031 L 317.742188 139.855469 C 321.855469 132.726562 330.929688 130.246094 338.070312 134.351562 C 345.207031 138.460938 347.6875 147.527344 343.578125 154.65625 L 309.285156 214.011719 L 309.285156 214.089844 L 285.082031 256.007812 C 279.648438 265.386719 272.046875 273.210938 262.582031 278.710938 L 261.882812 279.101562 C 252.652344 284.292969 242.332031 286.769531 231.78125 286.769531 C 221.230469 286.769531 210.910156 284.214844 201.757812 279.101562 L 200.902344 278.636719 C 191.515625 273.210938 183.914062 265.386719 178.484375 256.007812 L 154.277344 214.089844 L 154.277344 214.011719 L 143.804688 195.878906 Z M 341.484375 102.972656 C 341.484375 111.105469 348.078125 117.695312 356.222656 117.695312 C 364.371094 117.695312 370.964844 111.105469 370.964844 102.972656 C 370.964844 94.835938 364.371094 88.25 356.222656 88.25 C 348.078125 88.171875 341.484375 94.835938 341.484375 102.972656 Z M 33.871094 271.894531 C 33.871094 263.757812 27.273438 257.171875 19.128906 257.171875 C 10.984375 257.171875 4.386719 263.757812 4.386719 271.894531 C 4.386719 280.03125 10.984375 286.617188 19.128906 286.617188 C 27.273438 286.617188 33.871094 280.03125 33.871094 271.894531 Z M 33.871094 271.894531 " fill-opacity="1" fill-rule="evenodd"/><path fill="#fe4eee" d="M 143.648438 195.878906 L 130.691406 173.484375 C 127.898438 168.757812 128.132812 163.023438 130.691406 158.605469 L 88.640625 231.289062 L 69.480469 264.609375 C 65.367188 271.738281 67.773438 280.882812 74.910156 284.988281 C 82.046875 289.097656 91.203125 286.695312 95.316406 279.566406 L 114.398438 246.632812 Z M 231.703125 178.984375 L 244.660156 201.378906 C 247.453125 206.105469 247.21875 211.839844 244.660156 216.257812 L 286.710938 143.574219 L 305.949219 110.332031 C 310.0625 103.203125 307.65625 94.058594 300.519531 89.953125 C 293.382812 85.847656 284.226562 88.25 280.117188 95.375 L 261.03125 128.308594 Z M 231.703125 178.984375 " fill-opacity="1" fill-rule="evenodd"/></svg>