<svg xmlns="http://www.w3.org/2000/svg" xmlns:xlink="http://www.w3.org/1999/xlink" width="500" zoomAndPan="magnify" viewBox="0 0 375 374.999991" height="500" preserveAspectRatio="xMidYMid meet" version="1.2"><defs><clipPath id="fe628e8a6e"><path d="M 20.003906 3.621094 L 321 3.621094 L 321 280 L 20.003906 280 Z M 20.003906 3.621094 "/></clipPath><clipPath id="269ef05ba1"><path d="M 55 95 L 355.253906 95 L 355.253906 371 L 55 371 Z M 55 95 "/></clipPath></defs><g id="41df974e4d"><g clip-rule="nonzero" clip-path="url(#fe628e8a6e)"><path style=" stroke:none;fill-rule:nonzero;fill:#1875bb;fill-opacity:1;" d="M 123.886719 223.304688 L 251.367188 223.304688 C 252.710938 223.304688 254.054688 223.386719 255.316406 223.554688 C 256.660156 223.722656 257.917969 223.972656 259.261719 224.308594 C 260.523438 224.644531 261.78125 225.066406 263.042969 225.566406 C 264.300781 226.070312 265.476562 226.574219 266.652344 227.246094 C 267.828125 227.914062 268.921875 228.585938 270.011719 229.339844 C 271.105469 230.097656 272.113281 230.933594 273.121094 231.855469 C 274.128906 232.78125 274.96875 233.703125 275.890625 234.707031 C 276.730469 235.714844 277.488281 236.804688 278.242188 237.894531 C 277.65625 238.566406 277.066406 239.152344 276.480469 239.90625 C 275.890625 240.578125 275.386719 241.332031 274.96875 242.085938 C 274.464844 242.84375 274.042969 243.597656 273.707031 244.433594 C 273.289062 245.191406 272.953125 246.027344 272.699219 246.867188 C 272.363281 247.707031 272.113281 248.542969 271.945312 249.382812 C 271.777344 250.222656 271.609375 251.144531 271.441406 251.984375 C 271.355469 252.820312 271.273438 253.742188 271.273438 254.582031 C 271.273438 255.503906 271.273438 256.34375 271.355469 257.265625 C 271.441406 258.105469 271.523438 259.027344 271.691406 259.863281 C 271.859375 260.703125 272.113281 261.542969 272.363281 262.464844 C 272.617188 263.304688 272.953125 264.140625 273.289062 264.898438 C 273.625 265.734375 274.042969 266.488281 274.464844 267.246094 C 274.882812 268 275.386719 268.753906 275.890625 269.425781 C 276.394531 270.097656 276.984375 270.851562 277.570312 271.4375 C 278.160156 272.109375 278.832031 272.695312 279.417969 273.28125 C 280.089844 273.871094 280.761719 274.457031 281.519531 274.960938 C 282.273438 275.460938 282.945312 275.964844 283.785156 276.386719 C 284.542969 276.804688 285.382812 277.222656 286.136719 277.558594 C 286.976562 277.894531 287.816406 278.230469 288.65625 278.480469 C 289.496094 278.734375 290.335938 278.984375 291.257812 279.152344 C 292.097656 279.320312 293.023438 279.402344 293.863281 279.488281 C 294.785156 279.570312 295.625 279.570312 296.550781 279.570312 C 297.472656 279.570312 298.3125 279.488281 299.152344 279.320312 C 299.992188 279.234375 300.917969 279.070312 301.757812 278.816406 C 302.597656 278.566406 303.4375 278.3125 304.277344 278.0625 C 305.117188 277.726562 305.957031 277.390625 306.710938 277.054688 C 307.46875 276.636719 308.308594 276.21875 308.980469 275.714844 C 309.734375 275.210938 310.40625 274.707031 311.164062 274.203125 C 311.835938 273.617188 312.507812 273.03125 313.09375 272.445312 C 313.683594 271.855469 314.269531 271.1875 314.859375 270.515625 C 315.445312 269.84375 315.949219 269.089844 316.371094 268.335938 C 316.875 267.578125 317.292969 266.824219 317.714844 266.070312 C 318.132812 265.316406 318.46875 264.476562 318.722656 263.640625 C 319.058594 262.800781 319.308594 261.960938 319.476562 261.121094 C 319.730469 260.285156 319.898438 259.363281 319.980469 258.523438 C 320.066406 257.683594 320.148438 256.761719 320.234375 255.925781 C 320.234375 255 320.234375 254.164062 320.148438 253.324219 C 320.066406 252.402344 319.980469 251.5625 319.8125 250.726562 C 319.644531 249.886719 319.476562 249.046875 319.140625 248.125 C 318.890625 247.285156 318.554688 246.449219 318.21875 245.609375 C 317.882812 244.769531 317.460938 244.015625 317.042969 243.261719 C 316.621094 242.507812 316.117188 241.753906 315.613281 240.996094 C 315.109375 240.242188 314.523438 239.570312 313.933594 238.902344 C 313.347656 238.230469 312.757812 237.644531 312.085938 237.054688 C 311.414062 236.46875 310.742188 235.882812 309.988281 235.378906 C 309.316406 234.875 308.558594 234.371094 307.804688 233.953125 C 307.046875 233.535156 306.207031 233.113281 305.453125 232.78125 C 304.613281 232.445312 303.855469 232.109375 302.933594 231.855469 C 301.839844 229.425781 300.496094 226.992188 299.070312 224.730469 C 297.640625 222.464844 295.960938 220.285156 294.199219 218.273438 C 292.433594 216.257812 290.503906 214.332031 288.488281 212.570312 C 286.472656 210.808594 284.289062 209.214844 282.023438 207.707031 C 279.753906 206.28125 277.402344 204.9375 274.882812 203.847656 C 272.449219 202.757812 269.929688 201.753906 267.324219 200.996094 C 264.722656 200.242188 262.117188 199.65625 259.429688 199.238281 C 256.742188 198.816406 254.054688 198.648438 251.367188 198.648438 L 123.886719 198.648438 C 122.625 198.648438 121.28125 198.648438 120.023438 198.566406 C 118.765625 198.480469 117.421875 198.398438 116.160156 198.3125 C 114.902344 198.144531 113.558594 198.0625 112.296875 197.8125 C 111.039062 197.644531 109.777344 197.390625 108.433594 197.140625 C 107.175781 196.886719 105.914062 196.636719 104.65625 196.300781 C 103.394531 195.964844 102.136719 195.628906 100.875 195.296875 C 99.617188 194.960938 98.441406 194.539062 97.179688 194.039062 C 95.921875 193.617188 94.746094 193.113281 93.570312 192.613281 C 92.394531 192.109375 91.21875 191.605469 90.042969 191.019531 C 88.867188 190.429688 87.691406 189.84375 86.597656 189.257812 C 85.421875 188.671875 84.332031 188 83.238281 187.328125 C 82.148438 186.65625 81.054688 185.988281 79.964844 185.230469 C 78.875 184.476562 77.867188 183.808594 76.773438 182.96875 C 75.765625 182.214844 74.675781 181.375 73.667969 180.621094 C 72.660156 179.78125 71.652344 178.941406 70.726562 178.105469 C 69.804688 177.265625 68.796875 176.34375 67.871094 175.421875 C 66.949219 174.5 66.023438 173.578125 65.183594 172.570312 C 64.34375 171.648438 63.503906 170.640625 62.664062 169.636719 C 61.824219 168.628906 61.070312 167.621094 60.3125 166.617188 C 59.558594 165.609375 58.800781 164.519531 58.046875 163.429688 C 57.289062 162.339844 56.617188 161.25 55.945312 160.160156 C 55.273438 159.070312 54.601562 157.894531 54.015625 156.804688 C 53.425781 155.628906 52.839844 154.539062 52.25 153.367188 C 51.664062 152.191406 51.160156 151.019531 50.65625 149.84375 C 50.152344 148.671875 49.648438 147.414062 49.226562 146.238281 C 48.808594 144.980469 48.386719 143.808594 47.96875 142.550781 C 47.632812 141.292969 47.210938 140.035156 46.960938 138.777344 C 46.625 137.519531 46.371094 136.261719 46.121094 135.003906 C 45.867188 133.742188 45.617188 132.484375 45.449219 131.144531 C 45.28125 129.886719 45.113281 128.546875 44.945312 127.289062 C 44.777344 126.027344 44.691406 124.6875 44.691406 123.429688 C 44.609375 122.171875 44.609375 120.832031 44.609375 119.574219 C 44.609375 118.3125 44.609375 116.972656 44.691406 115.714844 C 44.777344 114.457031 44.859375 113.117188 44.945312 111.855469 C 45.113281 110.597656 45.195312 109.257812 45.449219 108 C 45.617188 106.742188 45.867188 105.484375 46.121094 104.140625 C 46.371094 102.882812 46.625 101.625 46.960938 100.367188 C 47.296875 99.109375 47.632812 97.851562 47.96875 96.59375 C 48.304688 95.335938 48.722656 94.164062 49.226562 92.90625 C 49.648438 91.648438 50.152344 90.472656 50.65625 89.300781 C 51.160156 88.125 51.664062 86.953125 52.25 85.777344 C 52.839844 84.605469 53.425781 83.429688 54.015625 82.339844 C 54.601562 81.164062 55.273438 80.074219 55.945312 78.984375 C 56.617188 77.894531 57.289062 76.804688 58.046875 75.714844 C 58.800781 74.625 59.472656 73.617188 60.3125 72.527344 C 61.070312 71.523438 61.910156 70.433594 62.664062 69.507812 C 63.503906 68.503906 64.34375 67.496094 65.183594 66.574219 C 66.023438 65.652344 66.949219 64.644531 67.871094 63.808594 C 68.796875 62.886719 69.71875 61.960938 70.726562 61.125 C 71.652344 60.285156 72.660156 59.445312 73.667969 58.609375 C 74.675781 57.769531 75.683594 57.015625 76.773438 56.261719 C 77.78125 55.503906 78.875 54.75 79.964844 53.996094 C 81.054688 53.242188 82.148438 52.570312 83.238281 51.898438 C 84.332031 51.230469 85.507812 50.558594 86.597656 49.972656 C 87.773438 49.382812 88.867188 48.796875 90.042969 48.210938 C 91.21875 47.621094 92.394531 47.121094 93.570312 46.617188 C 94.746094 46.113281 96.003906 45.695312 97.179688 45.191406 C 98.355469 44.6875 99.617188 44.351562 100.875 43.933594 C 102.136719 43.597656 103.394531 43.179688 104.65625 42.925781 C 105.914062 42.589844 107.175781 42.339844 108.433594 42.089844 C 109.695312 41.835938 110.953125 41.585938 112.296875 41.417969 C 113.558594 41.25 114.902344 41.082031 116.160156 40.914062 C 117.421875 40.746094 118.765625 40.664062 120.023438 40.664062 C 121.28125 40.578125 122.625 40.578125 123.886719 40.578125 L 224.160156 40.578125 C 224.578125 41.332031 225.082031 42.089844 225.585938 42.757812 C 226.089844 43.515625 226.679688 44.183594 227.265625 44.773438 C 227.855469 45.441406 228.527344 46.03125 229.199219 46.617188 C 229.871094 47.203125 230.542969 47.707031 231.296875 48.210938 C 232.054688 48.714844 232.808594 49.214844 233.566406 49.636719 C 234.320312 50.054688 235.160156 50.472656 236 50.808594 C 236.839844 51.144531 237.679688 51.398438 238.519531 51.648438 C 239.359375 51.898438 240.199219 52.066406 241.125 52.234375 C 241.964844 52.402344 242.886719 52.488281 243.8125 52.570312 C 244.734375 52.65625 245.574219 52.65625 246.5 52.570312 C 247.421875 52.488281 248.261719 52.402344 249.183594 52.320312 C 250.023438 52.152344 250.949219 51.984375 251.789062 51.730469 C 252.628906 51.480469 253.46875 51.230469 254.308594 50.894531 C 255.148438 50.558594 255.902344 50.222656 256.742188 49.804688 C 257.5 49.382812 258.253906 48.964844 259.011719 48.460938 C 259.765625 47.957031 260.4375 47.457031 261.109375 46.867188 C 261.78125 46.28125 262.453125 45.695312 263.042969 45.023438 C 263.628906 44.351562 264.21875 43.683594 264.804688 43.011719 C 265.308594 42.339844 265.8125 41.585938 266.316406 40.832031 C 266.738281 40.074219 267.15625 39.320312 267.578125 38.484375 C 267.914062 37.644531 268.25 36.890625 268.585938 36.050781 C 268.835938 35.210938 269.089844 34.375 269.339844 33.449219 C 269.507812 32.613281 269.675781 31.691406 269.761719 30.851562 C 269.84375 29.929688 269.929688 29.089844 269.929688 28.167969 C 269.929688 27.246094 269.84375 26.40625 269.761719 25.484375 C 269.675781 24.5625 269.507812 23.722656 269.339844 22.886719 C 269.171875 22.046875 268.921875 21.125 268.585938 20.285156 C 268.332031 19.445312 267.996094 18.609375 267.578125 17.855469 C 267.242188 17.015625 266.820312 16.261719 266.316406 15.503906 C 265.8125 14.75 265.394531 13.996094 264.804688 13.324219 C 264.300781 12.65625 263.714844 11.984375 263.042969 11.3125 C 262.453125 10.640625 261.78125 10.054688 261.109375 9.46875 C 260.4375 8.882812 259.683594 8.378906 259.011719 7.875 C 258.253906 7.371094 257.5 6.953125 256.742188 6.53125 C 255.820312 6.113281 255.0625 5.777344 254.222656 5.441406 C 253.382812 5.109375 252.542969 4.855469 251.703125 4.605469 C 250.863281 4.351562 249.941406 4.183594 249.101562 4.015625 C 248.261719 3.851562 247.335938 3.765625 246.414062 3.765625 C 245.492188 3.765625 244.652344 3.765625 243.726562 3.765625 C 242.804688 3.851562 241.964844 3.933594 241.039062 4.101562 C 240.199219 4.269531 239.277344 4.4375 238.4375 4.6875 C 237.597656 4.941406 236.757812 5.191406 235.917969 5.527344 C 235.078125 5.863281 234.320312 6.28125 233.480469 6.699219 C 232.726562 7.121094 231.96875 7.625 231.214844 8.125 C 230.457031 8.628906 229.785156 9.132812 229.113281 9.71875 C 228.441406 10.308594 227.769531 10.894531 227.183594 11.566406 C 226.59375 12.234375 226.007812 12.90625 225.503906 13.578125 C 225 14.332031 224.496094 15.003906 224.074219 15.839844 L 123.886719 15.839844 C 122.207031 15.839844 120.445312 15.839844 118.765625 15.925781 C 117.085938 16.007812 115.40625 16.09375 113.640625 16.261719 C 111.878906 16.429688 110.28125 16.597656 108.601562 16.847656 C 106.921875 17.097656 105.242188 17.351562 103.5625 17.6875 C 101.882812 18.023438 100.203125 18.355469 98.609375 18.777344 C 96.929688 19.195312 95.332031 19.613281 93.652344 20.117188 C 92.058594 20.621094 90.378906 21.125 88.78125 21.710938 C 87.1875 22.296875 85.589844 22.886719 83.996094 23.554688 C 82.398438 24.226562 80.886719 24.898438 79.292969 25.652344 C 77.78125 26.40625 76.269531 27.160156 74.757812 27.917969 C 73.246094 28.671875 71.734375 29.59375 70.308594 30.433594 C 68.878906 31.269531 67.367188 32.191406 66.023438 33.117188 C 64.597656 34.039062 63.253906 35.042969 61.824219 36.050781 C 60.480469 37.058594 59.136719 38.148438 57.792969 39.152344 C 56.449219 40.242188 55.191406 41.332031 53.929688 42.507812 C 52.671875 43.683594 51.410156 44.855469 50.234375 46.03125 C 49.058594 47.203125 47.882812 48.460938 46.707031 49.71875 C 45.53125 50.976562 44.441406 52.234375 43.347656 53.578125 C 42.257812 54.917969 41.25 56.261719 40.242188 57.601562 C 39.234375 58.945312 38.226562 60.371094 37.304688 61.792969 C 36.378906 63.21875 35.457031 64.644531 34.617188 66.070312 C 33.777344 67.496094 32.9375 69.007812 32.097656 70.515625 C 31.257812 72.027344 30.5 73.535156 29.828125 75.042969 C 29.074219 76.554688 28.402344 78.148438 27.730469 79.742188 C 27.058594 81.332031 26.46875 82.925781 25.882812 84.519531 C 25.292969 86.113281 24.789062 87.707031 24.285156 89.382812 C 23.78125 90.976562 23.363281 92.652344 22.941406 94.332031 C 22.523438 96.007812 22.1875 97.601562 21.851562 99.277344 C 21.515625 100.957031 21.261719 102.632812 21.011719 104.308594 C 20.757812 105.988281 20.589844 107.664062 20.421875 109.34375 C 20.253906 111.019531 20.171875 112.695312 20.085938 114.457031 C 20.003906 116.132812 20.003906 117.8125 20.003906 119.574219 C 20.003906 121.25 20.003906 122.925781 20.085938 124.6875 C 20.171875 126.363281 20.253906 128.042969 20.421875 129.804688 C 20.589844 131.5625 20.757812 133.15625 21.011719 134.835938 C 21.261719 136.511719 21.515625 138.1875 21.851562 139.867188 C 22.1875 141.542969 22.523438 143.21875 22.941406 144.8125 C 23.363281 146.492188 23.78125 148.082031 24.285156 149.761719 C 24.789062 151.4375 25.292969 153.03125 25.882812 154.625 C 26.46875 156.21875 27.058594 157.8125 27.730469 159.40625 C 28.402344 160.996094 29.074219 162.507812 29.828125 164.101562 C 30.585938 165.609375 31.339844 167.121094 32.097656 168.628906 C 32.9375 170.136719 33.777344 171.5625 34.617188 173.074219 C 35.457031 174.5 36.378906 175.925781 37.304688 177.351562 C 38.226562 178.777344 39.234375 180.117188 40.242188 181.542969 C 41.25 182.882812 42.339844 184.226562 43.347656 185.566406 C 44.441406 186.910156 45.53125 188.167969 46.707031 189.425781 C 47.882812 190.683594 49.058594 191.941406 50.234375 193.113281 C 51.410156 194.289062 52.671875 195.464844 53.929688 196.636719 C 55.191406 197.8125 56.449219 198.902344 57.792969 199.992188 C 59.136719 201.082031 60.480469 202.085938 61.824219 203.09375 C 63.167969 204.101562 64.597656 205.105469 66.023438 206.027344 C 67.453125 206.953125 68.878906 207.875 70.308594 208.710938 C 71.734375 209.550781 73.246094 210.390625 74.757812 211.226562 C 76.269531 212.066406 77.78125 212.820312 79.292969 213.492188 C 80.804688 214.246094 82.398438 214.917969 83.996094 215.589844 C 85.589844 216.257812 87.1875 216.847656 88.78125 217.433594 C 90.378906 218.019531 91.972656 218.523438 93.652344 219.027344 C 95.25 219.53125 96.929688 219.949219 98.609375 220.367188 C 100.289062 220.789062 101.882812 221.125 103.5625 221.457031 C 105.242188 221.792969 106.921875 222.046875 108.601562 222.296875 C 110.28125 222.546875 111.960938 222.714844 113.640625 222.882812 C 115.320312 223.050781 117 223.136719 118.765625 223.21875 C 120.445312 223.304688 122.207031 223.386719 123.886719 223.386719 Z M 123.886719 223.304688 "/></g><path style=" stroke:none;fill-rule:nonzero;fill:#23aae1;fill-opacity:1;" d="M 145.050781 63.050781 C 144.628906 62.296875 144.125 61.542969 143.621094 60.789062 C 143.117188 60.035156 142.53125 59.363281 141.941406 58.691406 C 141.355469 58.019531 140.683594 57.433594 140.011719 56.847656 C 139.339844 56.261719 138.667969 55.671875 137.910156 55.171875 C 137.15625 54.667969 136.398438 54.164062 135.644531 53.746094 C 134.886719 53.324219 134.046875 52.90625 133.207031 52.570312 C 132.367188 52.234375 131.527344 51.898438 130.6875 51.648438 C 129.847656 51.398438 129.007812 51.230469 128.085938 51.0625 C 127.246094 50.894531 126.320312 50.808594 125.398438 50.726562 C 124.472656 50.640625 123.632812 50.640625 122.710938 50.726562 C 121.785156 50.726562 120.949219 50.808594 120.023438 50.976562 C 119.101562 51.144531 118.261719 51.3125 117.421875 51.480469 C 116.582031 51.730469 115.742188 51.984375 114.902344 52.320312 C 114.0625 52.65625 113.222656 52.988281 112.464844 53.410156 C 111.710938 53.828125 110.871094 54.246094 110.199219 54.75 C 109.441406 55.253906 108.769531 55.757812 108.097656 56.34375 C 107.425781 56.929688 106.753906 57.519531 106.167969 58.1875 C 105.578125 58.859375 104.992188 59.53125 104.402344 60.203125 C 103.816406 60.871094 103.394531 61.628906 102.890625 62.382812 C 102.386719 63.136719 101.96875 63.890625 101.632812 64.730469 C 101.210938 65.570312 100.875 66.324219 100.625 67.160156 C 100.371094 68 100.121094 68.839844 99.867188 69.761719 C 99.699219 70.601562 99.53125 71.523438 99.449219 72.359375 C 99.363281 73.285156 99.28125 74.121094 99.28125 75.042969 C 99.28125 75.964844 99.28125 76.804688 99.449219 77.726562 C 99.617188 78.648438 99.699219 79.488281 99.867188 80.328125 C 100.035156 81.164062 100.289062 82.089844 100.539062 82.925781 C 100.792969 83.765625 101.128906 84.605469 101.546875 85.359375 C 101.882812 86.199219 102.304688 86.953125 102.808594 87.707031 C 103.226562 88.460938 103.730469 89.214844 104.320312 89.886719 C 104.90625 90.558594 105.410156 91.3125 106 91.898438 C 106.585938 92.570312 107.257812 93.15625 107.929688 93.746094 C 108.601562 94.332031 109.359375 94.835938 110.03125 95.335938 C 110.703125 95.839844 111.542969 96.261719 112.296875 96.679688 C 113.054688 97.097656 113.894531 97.433594 114.734375 97.769531 C 115.574219 98.105469 116.414062 98.355469 117.253906 98.609375 C 118.09375 98.859375 119.015625 99.027344 119.855469 99.195312 C 120.695312 99.363281 121.617188 99.445312 122.542969 99.445312 C 123.464844 99.53125 124.304688 99.53125 125.230469 99.445312 C 126.152344 99.363281 126.992188 99.277344 127.917969 99.195312 C 128.757812 99.027344 129.679688 98.859375 130.519531 98.609375 C 131.359375 98.355469 132.199219 98.105469 133.039062 97.769531 C 133.878906 97.433594 134.636719 97.097656 135.476562 96.679688 C 136.230469 96.261719 136.988281 95.757812 137.742188 95.253906 C 138.5 94.75 139.171875 94.246094 139.84375 93.660156 C 140.515625 93.074219 141.1875 92.488281 141.773438 91.816406 C 142.363281 91.144531 142.949219 90.472656 143.453125 89.804688 C 143.957031 89.132812 144.460938 88.378906 144.964844 87.621094 L 300.414062 87.621094 C 300.832031 88.378906 301.335938 89.132812 301.925781 89.804688 C 302.511719 90.472656 303.015625 91.230469 303.605469 91.816406 C 304.191406 92.488281 304.863281 93.074219 305.535156 93.660156 C 306.207031 94.246094 306.878906 94.75 307.636719 95.253906 C 308.390625 95.757812 309.148438 96.261719 309.902344 96.679688 C 310.660156 97.097656 311.5 97.433594 312.339844 97.769531 C 313.179688 98.105469 314.019531 98.355469 314.859375 98.609375 C 315.699219 98.859375 316.621094 99.027344 317.460938 99.195312 C 318.300781 99.363281 319.226562 99.445312 320.148438 99.445312 C 321.074219 99.53125 321.914062 99.53125 322.835938 99.445312 C 323.761719 99.363281 324.601562 99.277344 325.523438 99.195312 C 326.363281 99.027344 327.289062 98.859375 328.128906 98.609375 C 328.96875 98.355469 329.808594 98.105469 330.644531 97.769531 C 331.484375 97.433594 332.242188 97.097656 333.082031 96.679688 C 333.835938 96.261719 334.59375 95.839844 335.347656 95.335938 C 336.105469 94.835938 336.777344 94.332031 337.449219 93.746094 C 338.121094 93.15625 338.792969 92.570312 339.378906 91.898438 C 339.96875 91.230469 340.554688 90.558594 341.058594 89.886719 C 341.5625 89.214844 342.066406 88.460938 342.570312 87.707031 C 342.992188 86.953125 343.410156 86.199219 343.832031 85.359375 C 344.167969 84.519531 344.503906 83.765625 344.839844 82.925781 C 345.089844 82.089844 345.34375 81.25 345.511719 80.328125 C 345.679688 79.488281 345.847656 78.566406 345.929688 77.726562 C 346.015625 76.890625 346.097656 75.964844 346.097656 75.042969 C 346.097656 74.121094 346.015625 73.285156 345.929688 72.359375 C 345.847656 71.4375 345.679688 70.601562 345.511719 69.761719 C 345.34375 68.921875 345.089844 68 344.753906 67.160156 C 344.503906 66.324219 344.167969 65.484375 343.746094 64.730469 C 343.328125 63.890625 342.90625 63.136719 342.488281 62.382812 C 341.984375 61.628906 341.480469 60.871094 340.976562 60.203125 C 340.386719 59.53125 339.882812 58.859375 339.210938 58.1875 C 338.625 57.519531 337.953125 56.929688 337.28125 56.34375 C 336.609375 55.757812 335.851562 55.253906 335.179688 54.75 C 334.425781 54.246094 333.667969 53.828125 332.914062 53.410156 C 332.15625 52.988281 331.316406 52.65625 330.476562 52.320312 C 329.640625 51.984375 328.800781 51.730469 327.960938 51.480469 C 327.121094 51.230469 326.195312 51.0625 325.355469 50.976562 C 324.515625 50.808594 323.59375 50.726562 322.667969 50.726562 C 321.746094 50.726562 320.90625 50.726562 319.980469 50.726562 C 319.058594 50.726562 318.21875 50.894531 317.292969 51.0625 C 316.453125 51.230469 315.53125 51.398438 314.691406 51.648438 C 313.851562 51.898438 313.011719 52.152344 312.171875 52.570312 C 311.332031 52.90625 310.574219 53.324219 309.734375 53.746094 C 308.980469 54.164062 308.222656 54.667969 307.46875 55.171875 C 306.710938 55.671875 306.039062 56.261719 305.367188 56.847656 C 304.695312 57.433594 304.023438 58.019531 303.4375 58.691406 C 302.847656 59.363281 302.261719 60.035156 301.757812 60.789062 C 301.253906 61.542969 300.75 62.214844 300.328125 63.050781 Z M 145.050781 63.050781 "/><g clip-rule="nonzero" clip-path="url(#269ef05ba1)"><path style=" stroke:none;fill-rule:nonzero;fill:#23aae1;fill-opacity:1;" d="M 251.367188 151.355469 L 123.886719 151.355469 C 122.542969 151.355469 121.199219 151.269531 119.941406 151.101562 C 118.597656 150.933594 117.335938 150.683594 115.992188 150.347656 C 114.734375 150.011719 113.472656 149.59375 112.214844 149.089844 C 110.953125 148.585938 109.777344 148 108.601562 147.414062 C 107.425781 146.742188 106.335938 146.070312 105.242188 145.316406 C 104.152344 144.5625 103.144531 143.722656 102.136719 142.800781 C 101.128906 141.878906 100.289062 140.957031 99.363281 139.949219 C 98.523438 138.945312 97.769531 137.851562 97.011719 136.761719 C 97.601562 136.09375 98.1875 135.503906 98.777344 134.75 C 99.363281 134.078125 99.867188 133.324219 100.289062 132.570312 C 100.792969 131.816406 101.210938 131.0625 101.546875 130.222656 C 101.96875 129.46875 102.304688 128.628906 102.554688 127.789062 C 102.890625 126.953125 103.144531 126.113281 103.3125 125.273438 C 103.480469 124.4375 103.648438 123.511719 103.816406 122.675781 C 103.898438 121.835938 103.984375 120.914062 103.984375 120.074219 C 103.984375 119.152344 103.984375 118.316406 103.898438 117.476562 C 103.816406 116.554688 103.730469 115.714844 103.5625 114.875 C 103.394531 114.039062 103.144531 113.199219 102.890625 112.277344 C 102.640625 111.4375 102.304688 110.601562 101.96875 109.84375 C 101.632812 109.007812 101.210938 108.25 100.792969 107.496094 C 100.371094 106.742188 99.867188 105.988281 99.363281 105.316406 C 98.859375 104.644531 98.273438 103.890625 97.683594 103.304688 C 97.097656 102.632812 96.425781 102.046875 95.835938 101.460938 C 95.164062 100.871094 94.492188 100.285156 93.738281 99.78125 C 92.980469 99.277344 92.308594 98.777344 91.46875 98.355469 C 90.714844 97.9375 89.875 97.519531 89.117188 97.183594 C 88.277344 96.847656 87.4375 96.511719 86.597656 96.261719 C 85.757812 96.007812 84.917969 95.757812 83.996094 95.589844 C 83.15625 95.421875 82.230469 95.335938 81.390625 95.253906 C 80.46875 95.171875 79.628906 95.171875 78.707031 95.171875 C 77.78125 95.171875 76.941406 95.253906 76.101562 95.421875 C 75.261719 95.503906 74.339844 95.671875 73.5 95.925781 C 72.660156 96.175781 71.820312 96.429688 70.980469 96.679688 C 70.140625 97.015625 69.300781 97.351562 68.542969 97.6875 C 67.789062 98.105469 66.949219 98.523438 66.277344 99.027344 C 65.519531 99.53125 64.847656 100.035156 64.09375 100.535156 C 63.421875 101.125 62.75 101.710938 62.160156 102.296875 C 61.574219 102.886719 60.984375 103.554688 60.398438 104.226562 C 59.808594 104.898438 59.304688 105.652344 58.886719 106.40625 C 58.382812 107.160156 57.960938 107.917969 57.542969 108.671875 C 57.121094 109.425781 56.785156 110.265625 56.535156 111.101562 C 56.199219 111.941406 55.945312 112.78125 55.777344 113.617188 C 55.527344 114.457031 55.359375 115.378906 55.273438 116.21875 C 55.191406 117.058594 55.105469 117.980469 55.023438 118.816406 C 55.023438 119.738281 55.023438 120.578125 55.105469 121.5 C 55.191406 122.339844 55.273438 123.261719 55.441406 124.101562 C 55.609375 124.9375 55.777344 125.777344 56.113281 126.699219 C 56.367188 127.539062 56.703125 128.378906 57.039062 129.214844 C 57.375 130.054688 57.792969 130.808594 58.214844 131.5625 C 58.632812 132.320312 59.136719 133.074219 59.640625 133.828125 C 60.144531 134.582031 60.734375 135.253906 61.320312 135.925781 C 61.910156 136.59375 62.496094 137.183594 63.167969 137.769531 C 63.839844 138.355469 64.511719 138.941406 65.269531 139.445312 C 65.941406 139.949219 66.695312 140.453125 67.453125 140.871094 C 68.207031 141.292969 69.046875 141.710938 69.804688 142.046875 C 70.644531 142.382812 71.398438 142.71875 72.324219 142.96875 C 73.414062 145.398438 74.757812 147.832031 76.1875 150.097656 C 77.613281 152.359375 79.292969 154.539062 81.054688 156.554688 C 82.820312 158.566406 84.75 160.496094 86.765625 162.253906 C 88.78125 164.015625 90.964844 165.609375 93.234375 167.121094 C 95.5 168.542969 97.851562 169.886719 100.371094 170.976562 C 102.808594 172.066406 105.328125 173.074219 107.929688 173.828125 C 110.535156 174.582031 113.136719 175.167969 115.824219 175.589844 C 118.511719 176.007812 121.199219 176.175781 123.886719 176.175781 L 251.367188 176.175781 C 252.628906 176.175781 253.972656 176.175781 255.230469 176.257812 C 256.492188 176.34375 257.835938 176.425781 259.09375 176.511719 C 260.355469 176.679688 261.699219 176.761719 262.957031 177.015625 C 264.21875 177.183594 265.476562 177.433594 266.820312 177.683594 C 268.082031 177.9375 269.339844 178.1875 270.601562 178.523438 C 271.859375 178.859375 273.121094 179.195312 274.378906 179.53125 C 275.640625 179.867188 276.816406 180.285156 278.074219 180.789062 C 279.335938 181.292969 280.511719 181.710938 281.6875 182.214844 C 282.863281 182.714844 284.039062 183.21875 285.214844 183.808594 C 286.390625 184.394531 287.566406 184.980469 288.65625 185.566406 C 289.832031 186.15625 290.921875 186.824219 292.015625 187.496094 C 293.105469 188.167969 294.199219 188.839844 295.289062 189.59375 C 296.382812 190.347656 297.390625 191.101562 298.480469 191.855469 C 299.488281 192.613281 300.582031 193.449219 301.589844 194.207031 C 302.597656 195.042969 303.605469 195.882812 304.527344 196.722656 C 305.453125 197.558594 306.460938 198.480469 307.382812 199.402344 C 308.308594 200.328125 309.230469 201.25 310.070312 202.171875 C 310.910156 203.09375 311.75 204.101562 312.589844 205.105469 C 313.429688 206.113281 314.1875 207.117188 314.941406 208.125 C 315.699219 209.132812 316.453125 210.222656 317.210938 211.3125 C 317.964844 212.402344 318.636719 213.492188 319.308594 214.582031 C 319.980469 215.671875 320.652344 216.847656 321.242188 217.9375 C 321.828125 219.109375 322.417969 220.199219 323.003906 221.375 C 323.59375 222.546875 324.097656 223.722656 324.601562 224.898438 C 325.105469 226.070312 325.609375 227.328125 326.027344 228.503906 C 326.449219 229.761719 326.867188 230.933594 327.289062 232.191406 C 327.625 233.449219 328.042969 234.707031 328.296875 235.964844 C 328.632812 237.222656 328.882812 238.480469 329.136719 239.738281 C 329.386719 240.996094 329.640625 242.253906 329.808594 243.597656 C 329.976562 244.855469 330.144531 246.195312 330.3125 247.453125 C 330.480469 248.710938 330.5625 250.054688 330.5625 251.3125 C 330.648438 252.570312 330.648438 253.910156 330.648438 255.167969 C 330.648438 256.425781 330.648438 257.769531 330.5625 259.027344 C 330.480469 260.285156 330.394531 261.625 330.3125 262.882812 C 330.144531 264.140625 330.058594 265.484375 329.808594 266.742188 C 329.640625 268 329.386719 269.257812 329.136719 270.597656 C 328.882812 271.855469 328.632812 273.113281 328.296875 274.371094 C 327.960938 275.628906 327.625 276.886719 327.289062 278.144531 C 326.953125 279.402344 326.53125 280.578125 326.027344 281.835938 C 325.609375 283.09375 325.105469 284.269531 324.601562 285.441406 C 324.097656 286.617188 323.59375 287.789062 323.003906 288.964844 C 322.417969 290.136719 321.828125 291.3125 321.242188 292.402344 C 320.652344 293.574219 319.980469 294.664062 319.308594 295.757812 C 318.636719 296.847656 317.964844 297.9375 317.210938 299.027344 C 316.453125 300.117188 315.78125 301.121094 314.941406 302.214844 C 314.1875 303.21875 313.347656 304.308594 312.589844 305.230469 C 311.835938 306.15625 310.910156 307.246094 310.070312 308.167969 C 309.230469 309.089844 308.308594 310.09375 307.382812 310.933594 C 306.460938 311.855469 305.535156 312.777344 304.527344 313.617188 C 303.605469 314.457031 302.597656 315.292969 301.589844 316.132812 C 300.582031 316.972656 299.574219 317.726562 298.480469 318.480469 C 297.472656 319.234375 296.382812 319.992188 295.289062 320.746094 C 294.199219 321.5 293.105469 322.171875 292.015625 322.84375 C 290.921875 323.511719 289.746094 324.183594 288.65625 324.769531 C 287.480469 325.359375 286.390625 325.945312 285.214844 326.53125 C 284.039062 327.117188 282.863281 327.621094 281.6875 328.125 C 280.511719 328.628906 279.25 329.046875 278.074219 329.550781 C 276.816406 329.96875 275.640625 330.390625 274.378906 330.808594 C 273.121094 331.144531 271.859375 331.5625 270.601562 331.816406 C 269.339844 332.148438 268.082031 332.402344 266.820312 332.652344 C 265.5625 332.90625 264.300781 333.15625 262.957031 333.324219 C 261.699219 333.492188 260.355469 333.660156 259.09375 333.828125 C 257.835938 333.996094 256.492188 334.078125 255.230469 334.078125 C 253.972656 334.164062 252.628906 334.164062 251.367188 334.164062 L 150.257812 334.164062 C 149.835938 333.40625 149.332031 332.652344 148.746094 331.980469 C 148.242188 331.3125 147.652344 330.558594 147.066406 329.96875 C 146.476562 329.300781 145.804688 328.710938 145.132812 328.125 C 144.460938 327.539062 143.789062 327.035156 143.035156 326.53125 C 142.277344 326.027344 141.523438 325.523438 140.765625 325.105469 C 140.011719 324.6875 139.171875 324.265625 138.332031 323.933594 C 137.492188 323.597656 136.652344 323.261719 135.8125 323.09375 C 134.972656 322.84375 134.132812 322.675781 133.207031 322.507812 C 132.367188 322.339844 131.445312 322.253906 130.519531 322.171875 C 129.597656 322.085938 128.757812 322.085938 127.832031 322.171875 C 126.910156 322.171875 126.070312 322.339844 125.144531 322.421875 C 124.304688 322.589844 123.382812 322.757812 122.542969 323.007812 C 121.703125 323.261719 120.863281 323.511719 120.023438 323.847656 C 119.183594 324.183594 118.429688 324.519531 117.589844 324.9375 C 116.832031 325.359375 116.078125 325.777344 115.320312 326.28125 C 114.566406 326.78125 113.894531 327.285156 113.222656 327.875 C 112.550781 328.460938 111.878906 329.046875 111.289062 329.71875 C 110.703125 330.390625 110.113281 331.058594 109.527344 331.730469 C 109.023438 332.402344 108.519531 333.15625 108.015625 333.910156 C 107.511719 334.664062 107.175781 335.421875 106.753906 336.257812 C 106.417969 337.097656 106.082031 337.851562 105.746094 338.691406 C 105.496094 339.53125 105.242188 340.367188 105.074219 341.289062 C 104.90625 342.128906 104.738281 343.050781 104.65625 343.890625 C 104.570312 344.8125 104.488281 345.652344 104.488281 346.574219 C 104.488281 347.496094 104.570312 348.335938 104.65625 349.257812 C 104.738281 350.179688 104.90625 351.019531 105.074219 351.855469 C 105.242188 352.695312 105.496094 353.617188 105.746094 354.457031 C 106 355.292969 106.335938 356.132812 106.753906 356.886719 C 107.089844 357.726562 107.511719 358.480469 108.015625 359.234375 C 108.519531 359.992188 108.9375 360.746094 109.527344 361.417969 C 110.03125 362.085938 110.617188 362.757812 111.289062 363.429688 C 111.878906 364.097656 112.550781 364.6875 113.222656 365.273438 C 113.894531 365.859375 114.648438 366.363281 115.320312 366.867188 C 116.078125 367.371094 116.832031 367.789062 117.589844 368.207031 C 118.34375 368.628906 119.183594 368.964844 120.023438 369.296875 C 120.863281 369.632812 121.703125 369.886719 122.542969 370.136719 C 123.382812 370.390625 124.304688 370.554688 125.144531 370.722656 C 125.984375 370.890625 126.910156 370.976562 127.832031 370.976562 C 128.757812 370.976562 129.597656 370.976562 130.519531 370.976562 C 131.445312 370.890625 132.285156 370.808594 133.207031 370.640625 C 134.046875 370.472656 134.972656 370.304688 135.8125 370.054688 C 136.652344 369.800781 137.492188 369.550781 138.332031 369.214844 C 139.171875 368.878906 139.925781 368.460938 140.765625 368.039062 C 141.523438 367.621094 142.277344 367.117188 143.035156 366.613281 C 143.789062 366.113281 144.460938 365.609375 145.132812 365.023438 C 145.804688 364.433594 146.476562 363.847656 147.066406 363.175781 C 147.652344 362.507812 148.242188 361.835938 148.746094 361.164062 C 149.25 360.492188 149.753906 359.738281 150.257812 358.984375 L 251.367188 358.984375 C 253.046875 358.984375 254.8125 358.984375 256.492188 358.898438 C 258.171875 358.816406 259.851562 358.734375 261.613281 358.566406 C 263.292969 358.398438 264.972656 358.230469 266.652344 357.976562 C 268.332031 357.726562 270.011719 357.476562 271.691406 357.140625 C 273.371094 356.804688 275.050781 356.46875 276.648438 356.050781 C 278.328125 355.628906 279.921875 355.210938 281.601562 354.707031 C 283.199219 354.203125 284.878906 353.703125 286.472656 353.113281 C 288.070312 352.527344 289.664062 351.941406 291.257812 351.269531 C 292.855469 350.597656 294.367188 349.925781 295.960938 349.171875 C 297.472656 348.417969 298.984375 347.664062 300.496094 346.910156 C 302.007812 346.070312 303.519531 345.230469 304.949219 344.394531 C 306.375 343.554688 307.886719 342.632812 309.230469 341.710938 C 310.660156 340.789062 312.003906 339.78125 313.429688 338.773438 C 314.773438 337.769531 316.117188 336.679688 317.460938 335.671875 C 318.804688 334.582031 320.066406 333.492188 321.324219 332.316406 C 322.585938 331.144531 323.84375 329.96875 325.019531 328.796875 C 326.195312 327.621094 327.371094 326.363281 328.546875 325.105469 C 329.722656 323.847656 330.8125 322.589844 331.90625 321.25 C 332.996094 319.90625 334.003906 318.566406 335.011719 317.222656 C 336.019531 315.882812 337.027344 314.457031 337.953125 313.03125 C 338.875 311.605469 339.800781 310.179688 340.640625 308.753906 C 341.480469 307.328125 342.320312 305.820312 343.160156 304.308594 C 344 302.800781 344.753906 301.289062 345.425781 299.78125 C 346.183594 298.273438 346.855469 296.679688 347.527344 295.085938 C 348.199219 293.492188 348.785156 291.898438 349.375 290.304688 C 349.960938 288.710938 350.464844 287.117188 350.96875 285.441406 C 351.472656 283.847656 351.894531 282.171875 352.3125 280.578125 C 352.734375 278.902344 353.070312 277.308594 353.40625 275.628906 C 353.742188 273.953125 353.992188 272.277344 354.246094 270.597656 C 354.496094 268.921875 354.664062 267.246094 354.832031 265.566406 C 355 263.890625 355.085938 262.214844 355.167969 260.453125 C 355.253906 258.773438 355.253906 257.097656 355.253906 255.335938 C 355.253906 253.660156 355.253906 251.984375 355.167969 250.222656 C 355.085938 248.542969 355 246.867188 354.832031 245.105469 C 354.664062 243.429688 354.496094 241.753906 354.246094 240.074219 C 353.992188 238.398438 353.742188 236.71875 353.40625 235.042969 C 353.070312 233.367188 352.734375 231.6875 352.3125 230.097656 C 351.894531 228.417969 351.472656 226.824219 350.96875 225.230469 C 350.464844 223.640625 349.960938 221.960938 349.375 220.367188 C 348.785156 218.773438 348.199219 217.183594 347.527344 215.589844 C 346.855469 213.996094 346.183594 212.484375 345.425781 210.894531 C 344.671875 209.382812 343.914062 207.875 343.160156 206.363281 C 342.320312 204.855469 341.480469 203.429688 340.640625 201.921875 C 339.800781 200.496094 338.875 199.070312 337.953125 197.644531 C 337.027344 196.21875 336.019531 194.875 335.011719 193.449219 C 334.003906 192.109375 332.914062 190.765625 331.90625 189.425781 C 330.8125 188.082031 329.722656 186.824219 328.546875 185.566406 C 327.371094 184.308594 326.195312 183.050781 325.019531 181.878906 C 323.84375 180.703125 322.585938 179.53125 321.324219 178.355469 C 320.066406 177.183594 318.804688 176.09375 317.460938 175 C 316.117188 173.910156 314.773438 172.90625 313.429688 171.898438 C 312.085938 170.894531 310.660156 169.886719 309.230469 168.964844 C 307.804688 168.042969 306.375 167.121094 304.949219 166.28125 C 303.519531 165.441406 302.007812 164.605469 300.496094 163.765625 C 298.984375 162.925781 297.472656 162.171875 295.960938 161.5 C 294.449219 160.746094 292.855469 160.074219 291.257812 159.40625 C 289.664062 158.734375 288.070312 158.148438 286.472656 157.558594 C 284.878906 156.972656 283.28125 156.46875 281.601562 155.964844 C 280.007812 155.464844 278.328125 155.042969 276.648438 154.625 C 274.96875 154.207031 273.371094 153.871094 271.691406 153.535156 C 270.011719 153.199219 268.332031 152.949219 266.652344 152.695312 C 264.972656 152.445312 263.292969 152.277344 261.613281 152.109375 C 259.933594 151.941406 258.253906 151.855469 256.492188 151.773438 C 254.8125 151.355469 253.046875 151.355469 251.367188 151.355469 Z M 251.367188 151.355469 "/></g><path style=" stroke:none;fill-rule:nonzero;fill:#1875bb;fill-opacity:1;" d="M 230.207031 311.6875 C 230.625 312.445312 231.128906 313.199219 231.632812 313.953125 C 232.136719 314.625 232.726562 315.378906 233.3125 315.964844 C 233.902344 316.636719 234.574219 317.222656 235.246094 317.808594 C 235.917969 318.398438 236.589844 318.902344 237.34375 319.402344 C 238.101562 319.90625 238.855469 320.410156 239.613281 320.828125 C 240.367188 321.25 241.207031 321.667969 242.046875 322.003906 C 242.886719 322.339844 243.726562 322.675781 244.566406 322.84375 C 245.40625 323.09375 246.246094 323.261719 247.167969 323.429688 C 248.007812 323.597656 248.933594 323.679688 249.855469 323.765625 C 250.78125 323.847656 251.621094 323.847656 252.542969 323.765625 C 253.46875 323.765625 254.308594 323.597656 255.230469 323.511719 C 256.070312 323.34375 256.996094 323.175781 257.835938 322.925781 C 258.675781 322.675781 259.515625 322.421875 260.355469 322.085938 C 261.195312 321.75 261.949219 321.417969 262.789062 320.996094 C 263.546875 320.578125 264.300781 320.160156 265.058594 319.65625 C 265.8125 319.152344 266.484375 318.648438 267.15625 318.0625 C 267.828125 317.476562 268.5 316.886719 269.089844 316.21875 C 269.675781 315.546875 270.265625 314.875 270.851562 314.203125 C 271.355469 313.535156 271.859375 312.777344 272.363281 312.023438 C 272.785156 311.269531 273.203125 310.515625 273.625 309.675781 C 273.960938 308.835938 274.296875 308.082031 274.632812 307.246094 C 274.882812 306.40625 275.136719 305.566406 275.386719 304.644531 C 275.554688 303.804688 275.722656 302.882812 275.808594 302.046875 C 275.890625 301.121094 275.976562 300.285156 275.976562 299.363281 C 275.976562 298.441406 275.890625 297.601562 275.808594 296.679688 C 275.722656 295.757812 275.554688 294.917969 275.386719 294.078125 C 275.21875 293.242188 274.96875 292.316406 274.632812 291.480469 C 274.378906 290.640625 274.042969 289.800781 273.625 289.046875 C 273.289062 288.207031 272.867188 287.453125 272.363281 286.699219 C 271.859375 285.945312 271.441406 285.191406 270.851562 284.519531 C 270.347656 283.847656 269.761719 283.175781 269.089844 282.507812 C 268.5 281.835938 267.828125 281.25 267.15625 280.660156 C 266.484375 280.074219 265.730469 279.570312 265.058594 279.070312 C 264.300781 278.566406 263.546875 278.144531 262.789062 277.726562 C 262.035156 277.308594 261.195312 276.972656 260.355469 276.636719 C 259.515625 276.300781 258.675781 276.050781 257.835938 275.796875 C 256.996094 275.546875 256.070312 275.378906 255.230469 275.210938 C 254.390625 275.042969 253.46875 274.960938 252.542969 274.960938 C 251.621094 274.960938 250.78125 274.960938 249.855469 274.960938 C 248.933594 275.042969 248.09375 275.128906 247.167969 275.292969 C 246.332031 275.460938 245.40625 275.628906 244.566406 275.882812 C 243.726562 276.132812 242.886719 276.386719 242.046875 276.71875 C 241.207031 277.054688 240.453125 277.476562 239.613281 277.894531 C 238.855469 278.3125 238.101562 278.816406 237.34375 279.320312 C 236.589844 279.824219 235.917969 280.328125 235.246094 280.914062 C 234.574219 281.5 233.902344 282.085938 233.3125 282.757812 C 232.726562 283.429688 232.136719 284.101562 231.632812 284.769531 C 231.128906 285.441406 230.625 286.195312 230.207031 287.035156 L 74.925781 287.035156 C 74.507812 286.28125 74.003906 285.527344 73.5 284.769531 C 72.996094 284.101562 72.40625 283.34375 71.820312 282.757812 C 71.230469 282.085938 70.558594 281.5 69.886719 280.914062 C 69.214844 280.328125 68.542969 279.824219 67.789062 279.320312 C 67.03125 278.816406 66.277344 278.3125 65.519531 277.894531 C 64.765625 277.476562 63.925781 277.054688 63.085938 276.71875 C 62.246094 276.386719 61.40625 276.050781 60.566406 275.882812 C 59.726562 275.714844 58.886719 275.460938 57.960938 275.292969 C 57.121094 275.128906 56.199219 275.042969 55.273438 274.960938 C 54.351562 274.875 53.511719 274.875 52.585938 274.960938 C 51.664062 275.042969 50.824219 275.128906 49.898438 275.210938 C 49.058594 275.378906 48.136719 275.546875 47.296875 275.796875 C 46.457031 276.050781 45.617188 276.300781 44.777344 276.636719 C 43.9375 276.972656 43.179688 277.308594 42.339844 277.726562 C 41.585938 278.144531 40.828125 278.566406 40.074219 279.070312 C 39.316406 279.570312 38.644531 280.074219 37.972656 280.660156 C 37.304688 281.25 36.632812 281.835938 36.042969 282.507812 C 35.457031 283.175781 34.867188 283.847656 34.28125 284.519531 C 33.777344 285.191406 33.273438 285.945312 32.769531 286.699219 C 32.265625 287.453125 31.929688 288.207031 31.507812 289.046875 C 31.171875 289.886719 30.835938 290.640625 30.5 291.480469 C 30.25 292.316406 29.996094 293.15625 29.746094 294.078125 C 29.578125 294.917969 29.410156 295.839844 29.324219 296.679688 C 29.242188 297.515625 29.15625 298.441406 29.15625 299.363281 C 29.15625 300.285156 29.242188 301.121094 29.324219 302.046875 C 29.410156 302.96875 29.578125 303.804688 29.746094 304.644531 C 29.914062 305.484375 30.164062 306.40625 30.5 307.246094 C 30.753906 308.082031 31.089844 308.921875 31.507812 309.675781 C 31.84375 310.515625 32.265625 311.269531 32.769531 312.023438 C 33.273438 312.777344 33.691406 313.535156 34.28125 314.203125 C 34.785156 314.875 35.371094 315.546875 36.042969 316.21875 C 36.632812 316.886719 37.304688 317.476562 37.972656 318.0625 C 38.644531 318.648438 39.402344 319.152344 40.074219 319.65625 C 40.828125 320.160156 41.585938 320.578125 42.339844 320.996094 C 43.097656 321.417969 43.9375 321.75 44.777344 322.085938 C 45.617188 322.421875 46.457031 322.675781 47.296875 322.925781 C 48.136719 323.175781 49.058594 323.34375 49.898438 323.511719 C 50.738281 323.679688 51.664062 323.765625 52.585938 323.765625 C 53.511719 323.847656 54.351562 323.765625 55.273438 323.765625 C 56.199219 323.679688 57.039062 323.597656 57.960938 323.429688 C 58.800781 323.261719 59.726562 323.09375 60.566406 322.84375 C 61.40625 322.589844 62.246094 322.339844 63.085938 322.003906 C 63.925781 321.667969 64.679688 321.25 65.519531 320.828125 C 66.277344 320.410156 67.03125 319.90625 67.789062 319.402344 C 68.542969 318.902344 69.214844 318.3125 69.886719 317.808594 C 70.558594 317.222656 71.230469 316.636719 71.820312 315.964844 C 72.40625 315.292969 72.996094 314.625 73.5 313.953125 C 74.003906 313.28125 74.507812 312.527344 74.925781 311.773438 L 230.207031 311.773438 Z M 230.207031 311.6875 "/></g></svg>